MasterSet_Kanji_75-w1000.00.ufo
<glyph name="c13498" format="1">
	<advance width="750"/>
	<outline>
		<contour>
			<point x="33" y="58" type="line"/>
			<point x="38" y="-56" type="line"/>
			<point x="717" y="-16" type="line"/>
			<point x="711" y="94" type="line"/>
		</contour>
		<contour>
			<point x="45" y="812" type="line"/>
			<point x="45" y="697" type="line"/>
			<point x="707" y="697" type="line"/>
			<point x="707" y="812" type="line"/>
		</contour>
		<contour>
			<point x="46" y="429" type="line"/>
			<point x="46" y="326" type="line"/>
			<point x="708" y="326" type="line"/>
			<point x="708" y="429" type="line"/>
		</contour>
		<contour>
			<point x="200" y="299" type="line"/>
			<point x="200" y="216" type="line"/>
			<point x="539" y="216" type="line"/>
			<point x="539" y="299" type="line"/>
		</contour>
		<contour>
			<point x="200" y="188" type="line"/>
			<point x="200" y="105" type="line"/>
			<point x="539" y="105" type="line"/>
			<point x="539" y="188" type="line"/>
		</contour>
		<contour>
			<point x="196" y="855" type="line"/>
			<point x="196" y="643" type="line"/>
			<point x="304" y="643" type="line"/>
			<point x="304" y="855" type="line"/>
		</contour>
		<contour>
			<point x="444" y="855" type="line"/>
			<point x="444" y="643" type="line"/>
			<point x="553" y="643" type="line"/>
			<point x="553" y="855" type="line"/>
		</contour>
		<contour>
			<point x="500" y="397" type="line"/>
			<point x="500" y="-89" type="line"/>
			<point x="608" y="-89" type="line"/>
			<point x="608" y="397" type="line"/>
		</contour>
		<contour>
			<point x="144" y="393" type="line"/>
			<point x="144" y="33" type="line"/>
			<point x="250" y="33" type="line"/>
			<point x="250" y="393" type="line"/>
		</contour>
		<contour>
			<point x="226" y="575" type="line"/>
			<point x="515" y="575" type="line"/>
			<point x="515" y="544" type="line"/>
			<point x="226" y="544" type="line"/>
		</contour>
		<contour>
			<point x="123" y="664" type="line"/>
			<point x="123" y="455" type="line"/>
			<point x="625" y="455" type="line"/>
			<point x="625" y="664" type="line"/>
		</contour>
	</outline>
</glyph>
<glyph name="c14879" format="1">
	<advance width="750"/>
	<outline>
		<contour>
			<point x="93" y="813" type="line"/>
			<point x="93" y="687" type="line"/>
			<point x="193" y="687" type="line"/>
			<point x="193" y="199" type="line"/>
			<point x="93" y="199" type="line"/>
			<point x="93" y="73" type="line"/>
			<point x="295" y="73" type="line"/>
			<point x="295" y="813" type="line"/>
		</contour>
		<contour>
			<point x="101" y="607" type="line"/>
			<point x="101" y="486" type="line"/>
			<point x="251" y="486" type="line"/>
			<point x="251" y="607" type="line"/>
		</contour>
		<contour>
			<point x="101" y="404" type="line"/>
			<point x="101" y="283" type="line"/>
			<point x="251" y="283" type="line"/>
			<point x="251" y="404" type="line"/>
		</contour>
		<contour>
			<point x="42" y="813" type="line"/>
			<point x="42" y="-6" type="line"/>
			<point x="142" y="-6" type="line"/>
			<point x="142" y="813" type="line"/>
		</contour>
		<contour>
			<point x="296" y="35" type="line"/>
			<point x="296" y="-83" type="line"/>
			<point x="728" y="-83" type="line"/>
			<point x="728" y="35" type="line"/>
		</contour>
		<contour>
			<point x="341" y="201" type="line"/>
			<point x="341" y="92" type="line"/>
			<point x="686" y="92" type="line"/>
			<point x="686" y="201" type="line"/>
		</contour>
		<contour>
			<point x="429" y="580" type="line"/>
			<point x="595" y="580" type="line"/>
			<point x="595" y="547" type="line"/>
			<point x="429" y="547" type="line"/>
		</contour>
		<contour>
			<point x="429" y="713" type="line"/>
			<point x="595" y="713" type="line"/>
			<point x="595" y="680" type="line"/>
			<point x="429" y="680" type="line"/>
		</contour>
		<contour>
			<point x="331" y="820" type="line"/>
			<point x="331" y="440" type="line"/>
			<point x="698" y="440" type="line"/>
			<point x="698" y="820" type="line"/>
		</contour>
		<contour>
			<point x="461" y="462" type="line"/>
			<point x="461" y="-15" type="line"/>
			<point x="565" y="-15" type="line"/>
			<point x="565" y="462" type="line"/>
		</contour>
		<contour>
			<point x="344" y="442" type="line"/>
			<point x="326" y="376"/>
			<point x="295" y="306"/>
			<point x="260" y="262" type="curve"/>
			<point x="281" y="245"/>
			<point x="317" y="209"/>
			<point x="334" y="188" type="curve"/>
			<point x="371" y="242"/>
			<point x="410" y="328"/>
			<point x="434" y="411" type="curve"/>
		</contour>
		<contour>
			<point x="382" y="370" type="line"/>
			<point x="339" y="256" type="line"/>
			<point x="707" y="256" type="line"/>
			<point x="707" y="370" type="line"/>
		</contour>
	</outline>
</glyph>
<glyph name="c15147" format="1">
	<advance width="750"/>
	<outline>
		<contour>
			<point x="299" y="825" type="line"/>
			<point x="299" y="588" type="line"/>
			<point x="299" y="488"/>
			<point x="317" y="458"/>
			<point x="383" y="458" type="curve"/>
			<point x="396" y="458"/>
			<point x="425" y="458"/>
			<point x="439" y="458" type="curve"/>
			<point x="487" y="458"/>
			<point x="509" y="483"/>
			<point x="518" y="572" type="curve"/>
			<point x="495" y="578"/>
			<point x="461" y="596"/>
			<point x="446" y="612" type="curve"/>
			<point x="443" y="567"/>
			<point x="440" y="559"/>
			<point x="429" y="559" type="curve"/>
			<point x="422" y="559"/>
			<point x="403" y="559"/>
			<point x="397" y="559" type="curve"/>
			<point x="384" y="559"/>
			<point x="382" y="562"/>
			<point x="382" y="589" type="curve"/>
			<point x="382" y="825" type="line"/>
		</contour>
		<contour>
			<point x="301" y="405" type="line"/>
			<point x="301" y="287" type="line"/>
			<point x="723" y="287" type="line"/>
			<point x="723" y="405" type="line"/>
		</contour>
		<contour>
			<point x="284" y="215" type="line"/>
			<point x="284" y="95" type="line"/>
			<point x="733" y="95" type="line"/>
			<point x="733" y="215" type="line"/>
		</contour>
		<contour>
			<point x="376" y="486" type="line"/>
			<point x="376" y="180" type="line"/>
			<point x="473" y="180" type="line"/>
			<point x="473" y="486" type="line"/>
		</contour>
		<contour>
			<point x="539" y="483" type="line"/>
			<point x="539" y="177" type="line"/>
			<point x="638" y="177" type="line"/>
			<point x="638" y="483" type="line"/>
		</contour>
		<contour>
			<point x="337" y="825" type="line"/>
			<point x="337" y="737" type="line"/>
			<point x="416" y="737" type="line"/>
			<point x="416" y="701" type="line"/>
			<point x="337" y="701" type="line"/>
			<point x="337" y="613" type="line"/>
			<point x="494" y="613" type="line"/>
			<point x="494" y="825" type="line"/>
		</contour>
		<contour>
			<point x="512" y="825" type="line"/>
			<point x="512" y="588" type="line"/>
			<point x="512" y="488"/>
			<point x="530" y="458"/>
			<point x="597" y="458" type="curve"/>
			<point x="611" y="458"/>
			<point x="641" y="458"/>
			<point x="654" y="458" type="curve"/>
			<point x="704" y="458"/>
			<point x="726" y="483"/>
			<point x="735" y="572" type="curve"/>
			<point x="712" y="579"/>
			<point x="678" y="596"/>
			<point x="662" y="612" type="curve"/>
			<point x="660" y="567"/>
			<point x="656" y="559"/>
			<point x="645" y="559" type="curve"/>
			<point x="638" y="559"/>
			<point x="617" y="559"/>
			<point x="611" y="559" type="curve"/>
			<point x="598" y="559"/>
			<point x="596" y="562"/>
			<point x="596" y="589" type="curve"/>
			<point x="596" y="825" type="line"/>
		</contour>
		<contour>
			<point x="551" y="825" type="line"/>
			<point x="551" y="737" type="line"/>
			<point x="630" y="737" type="line"/>
			<point x="630" y="701" type="line"/>
			<point x="551" y="701" type="line"/>
			<point x="551" y="613" type="line"/>
			<point x="708" y="613" type="line"/>
			<point x="708" y="825" type="line"/>
		</contour>
		<contour>
			<point x="387" y="100" type="line"/>
			<point x="362" y="57"/>
			<point x="314" y="16"/>
			<point x="264" y="-9" type="curve"/>
			<point x="288" y="-30"/>
			<point x="328" y="-73"/>
			<point x="347" y="-98" type="curve"/>
			<point x="398" y="-63"/>
			<point x="455" y="-4"/>
			<point x="488" y="59" type="curve"/>
		</contour>
		<contour>
			<point x="523" y="54" type="line"/>
			<point x="569" y="11"/>
			<point x="627" y="-52"/>
			<point x="653" y="-94" type="curve"/>
			<point x="743" y="-27" type="line"/>
			<point x="713" y="17"/>
			<point x="652" y="76"/>
			<point x="607" y="115" type="curve"/>
		</contour>
		<contour>
			<point x="53" y="546" type="line"/>
			<point x="53" y="438" type="line"/>
			<point x="266" y="438" type="line"/>
			<point x="266" y="546" type="line"/>
		</contour>
		<contour>
			<point x="58" y="826" type="line"/>
			<point x="58" y="718" type="line"/>
			<point x="264" y="718" type="line"/>
			<point x="264" y="826" type="line"/>
		</contour>
		<contour>
			<point x="53" y="408" type="line"/>
			<point x="53" y="300" type="line"/>
			<point x="266" y="300" type="line"/>
			<point x="266" y="408" type="line"/>
		</contour>
		<contour>
			<point x="19" y="689" type="line"/>
			<point x="19" y="576" type="line"/>
			<point x="286" y="576" type="line"/>
			<point x="286" y="689" type="line"/>
		</contour>
		<contour>
			<point x="103" y="267" type="line"/>
			<point x="103" y="155" type="line"/>
			<point x="180" y="155" type="line"/>
			<point x="180" y="70" type="line"/>
			<point x="103" y="70" type="line"/>
			<point x="103" y="-42" type="line"/>
			<point x="269" y="-42" type="line"/>
			<point x="269" y="267" type="line"/>
		</contour>
		<contour>
			<point x="50" y="267" type="line"/>
			<point x="50" y="-80" type="line"/>
			<point x="138" y="-80" type="line"/>
			<point x="138" y="267" type="line"/>
		</contour>
	</outline>
</glyph>
<glyph name="c15202" format="1">
	<advance width="750"/>
	<outline>
		<contour>
			<point x="102" y="784" type="line"/>
			<point x="102" y="672" type="line"/>
			<point x="461" y="672" type="line"/>
			<point x="461" y="784" type="line"/>
		</contour>
		<contour>
			<point x="197" y="250" type="line"/>
			<point x="197" y="143" type="line"/>
			<point x="288" y="143" type="line"/>
			<point x="288" y="250" type="line"/>
		</contour>
		<contour>
			<point x="234" y="846" type="line"/>
			<point x="234" y="693" type="line"/>
			<point x="329" y="693" type="line"/>
			<point x="329" y="846" type="line"/>
		</contour>
		<contour>
			<point x="179" y="673" type="line"/>
			<point x="179" y="380" type="line"/>
			<point x="252" y="380" type="line"/>
			<point x="252" y="673" type="line"/>
		</contour>
		<contour>
			<point x="281" y="673" type="line"/>
			<point x="281" y="380" type="line"/>
			<point x="356" y="380" type="line"/>
			<point x="356" y="673" type="line"/>
		</contour>
		<contour>
			<point x="63" y="784" type="line"/>
			<point x="63" y="466" type="line"/>
			<point x="63" y="320"/>
			<point x="59" y="115"/>
			<point x="8" y="-26" type="curve"/>
			<point x="29" y="-37"/>
			<point x="67" y="-68"/>
			<point x="83" y="-86" type="curve"/>
			<point x="139" y="66"/>
			<point x="148" y="305"/>
			<point x="148" y="466" type="curve"/>
			<point x="148" y="784" type="line"/>
		</contour>
		<contour>
			<point x="124" y="612" type="line"/>
			<point x="124" y="499" type="line"/>
			<point x="383" y="499" type="line"/>
			<point x="383" y="432" type="line"/>
			<point x="124" y="432" type="line"/>
			<point x="124" y="319" type="line"/>
			<point x="458" y="319" type="line"/>
			<point x="458" y="612" type="line"/>
		</contour>
		<contour>
			<point x="154" y="337" type="line"/>
			<point x="154" y="3" type="line"/>
			<point x="233" y="10" type="line"/>
			<point x="233" y="337" type="line"/>
		</contour>
		<contour>
			<point x="113" y="26" type="curve"/>
			<point x="131" y="-86" type="line"/>
			<point x="181" y="-71"/>
			<point x="239" y="-54"/>
			<point x="296" y="-36" type="curve"/>
			<point x="287" y="68" type="line"/>
			<point x="222" y="52"/>
			<point x="159" y="35"/>
		</contour>
		<contour>
			<point x="301" y="337" type="line"/>
			<point x="301" y="51" type="line"/>
			<point x="301" y="-48"/>
			<point x="314" y="-79"/>
			<point x="373" y="-79" type="curve"/>
			<point x="384" y="-79"/>
			<point x="395" y="-79"/>
			<point x="407" y="-79" type="curve"/>
			<point x="451" y="-79"/>
			<point x="472" y="-49"/>
			<point x="479" y="59" type="curve"/>
			<point x="457" y="66"/>
			<point x="424" y="84"/>
			<point x="409" y="101" type="curve"/>
			<point x="407" y="32"/>
			<point x="405" y="22"/>
			<point x="397" y="22" type="curve"/>
			<point x="395" y="22"/>
			<point x="390" y="22"/>
			<point x="389" y="22" type="curve"/>
			<point x="383" y="22"/>
			<point x="382" y="25"/>
			<point x="382" y="52" type="curve"/>
			<point x="382" y="337" type="line"/>
		</contour>
		<contour>
			<point x="420" y="289" type="line"/>
			<point x="392" y="257"/>
			<point x="343" y="211"/>
			<point x="311" y="188" type="curve"/>
			<point x="352" y="113" type="line"/>
			<point x="387" y="134"/>
			<point x="434" y="168"/>
			<point x="474" y="202" type="curve"/>
		</contour>
		<contour>
			<point x="481" y="806" type="line"/>
			<point x="481" y="-94" type="line"/>
			<point x="577" y="-94" type="line"/>
			<point x="577" y="681" type="line"/>
			<point x="659" y="681" type="line"/>
			<point x="659" y="806" type="line"/>
		</contour>
		<contour>
			<point x="632" y="806" type="line"/>
			<point x="632" y="760" type="line"/>
			<point x="623" y="695"/>
			<point x="599" y="534"/>
			<point x="579" y="440" type="curve"/>
			<point x="618" y="365"/>
			<point x="626" y="294"/>
			<point x="626" y="243" type="curve"/>
			<point x="626" y="209"/>
			<point x="623" y="188"/>
			<point x="614" y="179" type="curve"/>
			<point x="608" y="172"/>
			<point x="601" y="170"/>
			<point x="593" y="170" type="curve"/>
			<point x="586" y="170"/>
			<point x="578" y="170"/>
			<point x="567" y="171" type="curve"/>
			<point x="581" y="135"/>
			<point x="589" y="79"/>
			<point x="590" y="44" type="curve"/>
			<point x="607" y="43"/>
			<point x="624" y="44"/>
			<point x="637" y="46" type="curve"/>
			<point x="655" y="50"/>
			<point x="671" y="58"/>
			<point x="683" y="72" type="curve"/>
			<point x="709" y="98"/>
			<point x="721" y="147"/>
			<point x="721" y="224" type="curve"/>
			<point x="721" y="288"/>
			<point x="713" y="367"/>
			<point x="670" y="454" type="curve"/>
			<point x="691" y="538"/>
			<point x="716" y="656"/>
			<point x="736" y="754" type="curve"/>
			<point x="665" y="811" type="line"/>
			<point x="650" y="806" type="line"/>
		</contour>
	</outline>
</glyph>
<glyph name="c16976" format="1">
	<advance width="750"/>
	<outline>
		<contour>
			<point x="23" y="801" type="line"/>
			<point x="23" y="667" type="line"/>
			<point x="280" y="667" type="line"/>
			<point x="280" y="801" type="line"/>
		</contour>
		<contour>
			<point x="33" y="533" type="line"/>
			<point x="33" y="400" type="line"/>
			<point x="270" y="400" type="line"/>
			<point x="270" y="533" type="line"/>
		</contour>
		<contour>
			<point x="8" y="206" type="curve"/>
			<point x="32" y="69" type="line"/>
			<point x="106" y="92"/>
			<point x="199" y="121"/>
			<point x="284" y="150" type="curve"/>
			<point x="272" y="281" type="line"/>
			<point x="177" y="252"/>
			<point x="77" y="222"/>
		</contour>
		<contour>
			<point x="99" y="748" type="line"/>
			<point x="99" y="169" type="line"/>
			<point x="203" y="223" type="line"/>
			<point x="203" y="748" type="line"/>
		</contour>
		<contour>
			<point x="252" y="36" type="line"/>
			<point x="252" y="-83" type="line"/>
			<point x="728" y="-83" type="line"/>
			<point x="728" y="36" type="line"/>
		</contour>
		<contour>
			<point x="321" y="203" type="line"/>
			<point x="321" y="92" type="line"/>
			<point x="689" y="92" type="line"/>
			<point x="689" y="203" type="line"/>
		</contour>
		<contour>
			<point x="409" y="579" type="line"/>
			<point x="596" y="579" type="line"/>
			<point x="596" y="543" type="line"/>
			<point x="409" y="543" type="line"/>
		</contour>
		<contour>
			<point x="409" y="713" type="line"/>
			<point x="596" y="713" type="line"/>
			<point x="596" y="678" type="line"/>
			<point x="409" y="678" type="line"/>
		</contour>
		<contour>
			<point x="311" y="820" type="line"/>
			<point x="311" y="436" type="line"/>
			<point x="698" y="436" type="line"/>
			<point x="698" y="820" type="line"/>
		</contour>
		<contour>
			<point x="452" y="453" type="line"/>
			<point x="452" y="16" type="line"/>
			<point x="558" y="16" type="line"/>
			<point x="558" y="453" type="line"/>
		</contour>
		<contour>
			<point x="328" y="444" type="line"/>
			<point x="311" y="373"/>
			<point x="278" y="301"/>
			<point x="239" y="255" type="curve"/>
			<point x="260" y="238"/>
			<point x="296" y="201"/>
			<point x="313" y="181" type="curve"/>
			<point x="354" y="236"/>
			<point x="395" y="326"/>
			<point x="418" y="414" type="curve"/>
		</contour>
		<contour>
			<point x="356" y="367" type="line"/>
			<point x="314" y="255" type="line"/>
			<point x="704" y="255" type="line"/>
			<point x="704" y="367" type="line"/>
		</contour>
	</outline>
</glyph>
<glyph name="c17290" format="1">
	<advance width="750"/>
	<outline>
		<contour>
			<point x="246" y="822" type="line"/>
			<point x="246" y="582" type="line"/>
			<point x="246" y="482"/>
			<point x="266" y="453"/>
			<point x="335" y="453" type="curve"/>
			<point x="349" y="453"/>
			<point x="382" y="453"/>
			<point x="397" y="453" type="curve"/>
			<point x="448" y="453"/>
			<point x="470" y="478"/>
			<point x="479" y="563" type="curve"/>
			<point x="456" y="570"/>
			<point x="422" y="586"/>
			<point x="405" y="603" type="curve"/>
			<point x="403" y="560"/>
			<point x="400" y="552"/>
			<point x="387" y="552" type="curve"/>
			<point x="380" y="552"/>
			<point x="356" y="552"/>
			<point x="350" y="552" type="curve"/>
			<point x="335" y="552"/>
			<point x="332" y="555"/>
			<point x="332" y="583" type="curve"/>
			<point x="332" y="822" type="line"/>
		</contour>
		<contour>
			<point x="246" y="399" type="line"/>
			<point x="246" y="279" type="line"/>
			<point x="713" y="279" type="line"/>
			<point x="713" y="399" type="line"/>
		</contour>
		<contour>
			<point x="226" y="214" type="line"/>
			<point x="226" y="92" type="line"/>
			<point x="729" y="92" type="line"/>
			<point x="729" y="214" type="line"/>
		</contour>
		<contour>
			<point x="332" y="477" type="line"/>
			<point x="332" y="171" type="line"/>
			<point x="432" y="171" type="line"/>
			<point x="432" y="477" type="line"/>
		</contour>
		<contour>
			<point x="519" y="476" type="line"/>
			<point x="519" y="170" type="line"/>
			<point x="620" y="170" type="line"/>
			<point x="620" y="476" type="line"/>
		</contour>
		<contour>
			<point x="284" y="822" type="line"/>
			<point x="284" y="731" type="line"/>
			<point x="382" y="731" type="line"/>
			<point x="382" y="699" type="line"/>
			<point x="284" y="699" type="line"/>
			<point x="284" y="607" type="line"/>
			<point x="462" y="607" type="line"/>
			<point x="462" y="822" type="line"/>
		</contour>
		<contour>
			<point x="485" y="822" type="line"/>
			<point x="485" y="582" type="line"/>
			<point x="485" y="482"/>
			<point x="505" y="453"/>
			<point x="575" y="453" type="curve"/>
			<point x="590" y="453"/>
			<point x="625" y="453"/>
			<point x="641" y="453" type="curve"/>
			<point x="692" y="453"/>
			<point x="715" y="479"/>
			<point x="724" y="567" type="curve"/>
			<point x="701" y="574"/>
			<point x="666" y="590"/>
			<point x="650" y="607" type="curve"/>
			<point x="647" y="561"/>
			<point x="644" y="552"/>
			<point x="631" y="552" type="curve"/>
			<point x="623" y="552"/>
			<point x="596" y="552"/>
			<point x="590" y="552" type="curve"/>
			<point x="574" y="552"/>
			<point x="572" y="555"/>
			<point x="572" y="584" type="curve"/>
			<point x="572" y="822" type="line"/>
		</contour>
		<contour>
			<point x="524" y="822" type="line"/>
			<point x="524" y="731" type="line"/>
			<point x="623" y="731" type="line"/>
			<point x="623" y="699" type="line"/>
			<point x="524" y="699" type="line"/>
			<point x="524" y="607" type="line"/>
			<point x="705" y="607" type="line"/>
			<point x="705" y="822" type="line"/>
		</contour>
		<contour>
			<point x="363" y="87" type="line"/>
			<point x="332" y="48"/>
			<point x="271" y="17"/>
			<point x="208" y="-1" type="curve"/>
			<point x="230" y="-24"/>
			<point x="268" y="-73"/>
			<point x="285" y="-100" type="curve"/>
			<point x="350" y="-70"/>
			<point x="422" y="-18"/>
			<point x="464" y="45" type="curve"/>
		</contour>
		<contour>
			<point x="498" y="30" type="line"/>
			<point x="548" y="-3"/>
			<point x="610" y="-55"/>
			<point x="639" y="-90" type="curve"/>
			<point x="731" y="-19" type="line"/>
			<point x="695" y="18"/>
			<point x="631" y="67"/>
			<point x="583" y="95" type="curve"/>
		</contour>
		<contour>
			<point x="148" y="855" type="line"/>
			<point x="117" y="713"/>
			<point x="64" y="571"/>
			<point x="6" y="480" type="curve"/>
			<point x="23" y="441"/>
			<point x="49" y="356"/>
			<point x="57" y="320" type="curve"/>
			<point x="135" y="442"/>
			<point x="206" y="639"/>
			<point x="248" y="815" type="curve"/>
		</contour>
		<contour>
			<point x="89" y="564" type="line"/>
			<point x="89" y="-94" type="line"/>
			<point x="192" y="-94" type="line"/>
			<point x="192" y="696" type="line"/>
			<point x="189" y="698" type="line"/>
		</contour>
	</outline>
</glyph>
<glyph name="c17751" format="1">
	<advance width="750"/>
	<outline>
		<contour>
			<point x="94" y="795" type="line"/>
			<point x="94" y="666" type="line"/>
			<point x="185" y="666" type="line"/>
			<point x="185" y="234" type="line"/>
			<point x="94" y="234" type="line"/>
			<point x="94" y="105" type="line"/>
			<point x="283" y="105" type="line"/>
			<point x="283" y="795" type="line"/>
		</contour>
		<contour>
			<point x="101" y="516" type="line"/>
			<point x="101" y="390" type="line"/>
			<point x="239" y="390" type="line"/>
			<point x="239" y="516" type="line"/>
		</contour>
		<contour>
			<point x="43" y="795" type="line"/>
			<point x="43" y="30" type="line"/>
			<point x="141" y="30" type="line"/>
			<point x="141" y="795" type="line"/>
		</contour>
		<contour>
			<point x="284" y="35" type="line"/>
			<point x="284" y="-83" type="line"/>
			<point x="731" y="-83" type="line"/>
			<point x="731" y="35" type="line"/>
		</contour>
		<contour>
			<point x="341" y="203" type="line"/>
			<point x="341" y="94" type="line"/>
			<point x="686" y="94" type="line"/>
			<point x="686" y="203" type="line"/>
		</contour>
		<contour>
			<point x="425" y="580" type="line"/>
			<point x="594" y="580" type="line"/>
			<point x="594" y="547" type="line"/>
			<point x="425" y="547" type="line"/>
		</contour>
		<contour>
			<point x="425" y="713" type="line"/>
			<point x="594" y="713" type="line"/>
			<point x="594" y="680" type="line"/>
			<point x="425" y="680" type="line"/>
		</contour>
		<contour>
			<point x="327" y="820" type="line"/>
			<point x="327" y="440" type="line"/>
			<point x="697" y="440" type="line"/>
			<point x="697" y="820" type="line"/>
		</contour>
		<contour>
			<point x="461" y="454" type="line"/>
			<point x="461" y="-10" type="line"/>
			<point x="565" y="-10" type="line"/>
			<point x="565" y="454" type="line"/>
		</contour>
		<contour>
			<point x="341" y="447" type="line"/>
			<point x="323" y="376"/>
			<point x="291" y="302"/>
			<point x="255" y="254" type="curve"/>
			<point x="276" y="237"/>
			<point x="312" y="202"/>
			<point x="329" y="181" type="curve"/>
			<point x="367" y="238"/>
			<point x="407" y="329"/>
			<point x="430" y="416" type="curve"/>
		</contour>
		<contour>
			<point x="382" y="369" type="line"/>
			<point x="339" y="255" type="line"/>
			<point x="707" y="255" type="line"/>
			<point x="707" y="369" type="line"/>
		</contour>
	</outline>
</glyph>
<glyph name="c17852" format="1">
	<advance width="750"/>
	<outline>
		<contour>
			<point x="28" y="661" type="line"/>
			<point x="28" y="531" type="line"/>
			<point x="258" y="531" type="line"/>
			<point x="258" y="661" type="line"/>
		</contour>
		<contour>
			<point x="107" y="855" type="line"/>
			<point x="107" y="-95" type="line"/>
			<point x="206" y="-95" type="line"/>
			<point x="206" y="855" type="line"/>
		</contour>
		<contour>
			<point x="111" y="564" type="line"/>
			<point x="95" y="446"/>
			<point x="56" y="290"/>
			<point x="10" y="197" type="curve"/>
			<point x="26" y="162"/>
			<point x="49" y="107"/>
			<point x="59" y="67" type="curve"/>
			<point x="113" y="178"/>
			<point x="153" y="378"/>
			<point x="175" y="536" type="curve"/>
		</contour>
		<contour>
			<point x="202" y="521" type="curve"/>
			<point x="158" y="448" type="line"/>
			<point x="178" y="398"/>
			<point x="216" y="295"/>
			<point x="234" y="233" type="curve"/>
			<point x="288" y="362" type="line"/>
			<point x="276" y="385"/>
			<point x="218" y="497"/>
		</contour>
		<contour>
			<point x="320" y="776" type="line"/>
			<point x="320" y="656" type="line"/>
			<point x="722" y="656" type="line"/>
			<point x="722" y="776" type="line"/>
		</contour>
		<contour>
			<point x="412" y="238" type="line"/>
			<point x="412" y="131" type="line"/>
			<point x="524" y="131" type="line"/>
			<point x="524" y="238" type="line"/>
		</contour>
		<contour>
			<point x="374" y="323" type="line"/>
			<point x="374" y="3" type="line"/>
			<point x="463" y="3" type="line"/>
			<point x="463" y="323" type="line"/>
		</contour>
		<contour>
			<point x="455" y="855" type="line"/>
			<point x="455" y="702" type="line"/>
			<point x="557" y="702" type="line"/>
			<point x="557" y="855" type="line"/>
		</contour>
		<contour>
			<point x="395" y="664" type="line"/>
			<point x="395" y="394" type="line"/>
			<point x="480" y="394" type="line"/>
			<point x="480" y="664" type="line"/>
		</contour>
		<contour>
			<point x="512" y="664" type="line"/>
			<point x="512" y="394" type="line"/>
			<point x="596" y="394" type="line"/>
			<point x="596" y="664" type="line"/>
		</contour>
		<contour>
			<point x="678" y="276" type="line"/>
			<point x="648" y="244"/>
			<point x="599" y="200"/>
			<point x="566" y="179" type="curve"/>
			<point x="609" y="92" type="line"/>
			<point x="643" y="114"/>
			<point x="693" y="150"/>
			<point x="728" y="185" type="curve"/>
		</contour>
		<contour>
			<point x="335" y="592" type="line"/>
			<point x="335" y="481" type="line"/>
			<point x="630" y="481" type="line"/>
			<point x="630" y="411" type="line"/>
			<point x="335" y="411" type="line"/>
			<point x="335" y="300" type="line"/>
			<point x="721" y="300" type="line"/>
			<point x="721" y="592" type="line"/>
		</contour>
		<contour>
			<point x="535" y="323" type="line"/>
			<point x="535" y="50" type="line"/>
			<point x="535" y="-55"/>
			<point x="549" y="-89"/>
			<point x="617" y="-89" type="curve"/>
			<point x="630" y="-89"/>
			<point x="647" y="-89"/>
			<point x="660" y="-89" type="curve"/>
			<point x="711" y="-89"/>
			<point x="733" y="-55"/>
			<point x="741" y="63" type="curve"/>
			<point x="717" y="71"/>
			<point x="681" y="90"/>
			<point x="664" y="108" type="curve"/>
			<point x="662" y="31"/>
			<point x="659" y="18"/>
			<point x="650" y="18" type="curve"/>
			<point x="647" y="18"/>
			<point x="637" y="18"/>
			<point x="634" y="18" type="curve"/>
			<point x="626" y="18"/>
			<point x="625" y="21"/>
			<point x="625" y="50" type="curve"/>
			<point x="625" y="323" type="line"/>
		</contour>
		<contour>
			<point x="335" y="30" type="curve"/>
			<point x="346" y="-91" type="line"/>
			<point x="401" y="-80"/>
			<point x="465" y="-68"/>
			<point x="527" y="-55" type="curve"/>
			<point x="521" y="60" type="line"/>
			<point x="452" y="48"/>
			<point x="384" y="37"/>
		</contour>
		<contour>
			<point x="269" y="776" type="line"/>
			<point x="269" y="449" type="line"/>
			<point x="269" y="307"/>
			<point x="265" y="111"/>
			<point x="212" y="-21" type="curve"/>
			<point x="234" y="-35"/>
			<point x="276" y="-76"/>
			<point x="293" y="-99" type="curve"/>
			<point x="354" y="49"/>
			<point x="365" y="289"/>
			<point x="365" y="449" type="curve"/>
			<point x="365" y="776" type="line"/>
		</contour>
	</outline>
</glyph>
<glyph name="c17986" format="1">
	<advance width="750"/>
	<outline>
		<contour>
			<point x="44" y="741" type="line"/>
			<point x="84" y="716"/>
			<point x="137" y="673"/>
			<point x="160" y="642" type="curve"/>
			<point x="224" y="758" type="line"/>
			<point x="198" y="789"/>
			<point x="145" y="826"/>
			<point x="104" y="847" type="curve"/>
		</contour>
		<contour>
			<point x="17" y="475" type="line"/>
			<point x="57" y="451"/>
			<point x="108" y="410"/>
			<point x="131" y="380" type="curve"/>
			<point x="195" y="497" type="line"/>
			<point x="170" y="527"/>
			<point x="116" y="562"/>
			<point x="77" y="582" type="curve"/>
		</contour>
		<contour>
			<point x="23" y="-12" type="curve"/>
			<point x="122" y="-85" type="line"/>
			<point x="152" y="16"/>
			<point x="182" y="128"/>
			<point x="206" y="237" type="curve"/>
			<point x="118" y="312" type="line"/>
			<point x="89" y="192"/>
			<point x="51" y="67"/>
		</contour>
		<contour>
			<point x="235" y="822" type="line"/>
			<point x="235" y="593" type="line"/>
			<point x="235" y="492"/>
			<point x="254" y="462"/>
			<point x="324" y="462" type="curve"/>
			<point x="339" y="462"/>
			<point x="375" y="462"/>
			<point x="390" y="462" type="curve"/>
			<point x="442" y="462"/>
			<point x="465" y="487"/>
			<point x="474" y="577" type="curve"/>
			<point x="451" y="583"/>
			<point x="416" y="600"/>
			<point x="400" y="617" type="curve"/>
			<point x="398" y="572"/>
			<point x="395" y="564"/>
			<point x="381" y="564" type="curve"/>
			<point x="372" y="564"/>
			<point x="345" y="564"/>
			<point x="338" y="564" type="curve"/>
			<point x="322" y="564"/>
			<point x="320" y="567"/>
			<point x="320" y="595" type="curve"/>
			<point x="320" y="822" type="line"/>
		</contour>
		<contour>
			<point x="224" y="410" type="line"/>
			<point x="224" y="293" type="line"/>
			<point x="718" y="293" type="line"/>
			<point x="718" y="410" type="line"/>
		</contour>
		<contour>
			<point x="205" y="222" type="line"/>
			<point x="205" y="100" type="line"/>
			<point x="732" y="100" type="line"/>
			<point x="732" y="222" type="line"/>
		</contour>
		<contour>
			<point x="323" y="486" type="line"/>
			<point x="323" y="180" type="line"/>
			<point x="424" y="180" type="line"/>
			<point x="424" y="486" type="line"/>
		</contour>
		<contour>
			<point x="509" y="485" type="line"/>
			<point x="509" y="179" type="line"/>
			<point x="611" y="179" type="line"/>
			<point x="611" y="485" type="line"/>
		</contour>
		<contour>
			<point x="284" y="822" type="line"/>
			<point x="284" y="734" type="line"/>
			<point x="368" y="734" type="line"/>
			<point x="368" y="698" type="line"/>
			<point x="284" y="698" type="line"/>
			<point x="284" y="610" type="line"/>
			<point x="449" y="610" type="line"/>
			<point x="449" y="822" type="line"/>
		</contour>
		<contour>
			<point x="478" y="822" type="line"/>
			<point x="478" y="594" type="line"/>
			<point x="478" y="492"/>
			<point x="497" y="463"/>
			<point x="569" y="463" type="curve"/>
			<point x="584" y="463"/>
			<point x="623" y="463"/>
			<point x="638" y="463" type="curve"/>
			<point x="690" y="463"/>
			<point x="713" y="488"/>
			<point x="722" y="577" type="curve"/>
			<point x="699" y="584"/>
			<point x="665" y="601"/>
			<point x="649" y="617" type="curve"/>
			<point x="646" y="572"/>
			<point x="643" y="564"/>
			<point x="629" y="564" type="curve"/>
			<point x="620" y="564"/>
			<point x="590" y="564"/>
			<point x="583" y="564" type="curve"/>
			<point x="566" y="564"/>
			<point x="563" y="567"/>
			<point x="563" y="595" type="curve"/>
			<point x="563" y="822" type="line"/>
		</contour>
		<contour>
			<point x="525" y="822" type="line"/>
			<point x="525" y="734" type="line"/>
			<point x="614" y="734" type="line"/>
			<point x="614" y="698" type="line"/>
			<point x="525" y="698" type="line"/>
			<point x="525" y="610" type="line"/>
			<point x="695" y="610" type="line"/>
			<point x="695" y="822" type="line"/>
		</contour>
		<contour>
			<point x="347" y="104" type="line"/>
			<point x="314" y="61"/>
			<point x="252" y="23"/>
			<point x="192" y="-1" type="curve"/>
			<point x="215" y="-24"/>
			<point x="251" y="-74"/>
			<point x="268" y="-101" type="curve"/>
			<point x="331" y="-66"/>
			<point x="403" y="-7"/>
			<point x="446" y="58" type="curve"/>
		</contour>
		<contour>
			<point x="482" y="49" type="line"/>
			<point x="531" y="6"/>
			<point x="599" y="-57"/>
			<point x="629" y="-96" type="curve"/>
			<point x="725" y="-31" type="line"/>
			<point x="687" y="10"/>
			<point x="618" y="69"/>
			<point x="570" y="107" type="curve"/>
		</contour>
	</outline>
</glyph>
<glyph name="c18165" format="1">
	<advance width="750"/>
	<outline>
		<contour>
			<point x="175" y="784" type="line"/>
			<point x="175" y="670" type="line"/>
			<point x="725" y="670" type="line"/>
			<point x="725" y="784" type="line"/>
		</contour>
		<contour>
			<point x="117" y="784" type="line"/>
			<point x="117" y="461" type="line"/>
			<point x="117" y="318"/>
			<point x="110" y="130"/>
			<point x="31" y="4" type="curve"/>
			<point x="51" y="-13"/>
			<point x="91" y="-64"/>
			<point x="106" y="-90" type="curve"/>
			<point x="200" y="52"/>
			<point x="215" y="296"/>
			<point x="215" y="460" type="curve"/>
			<point x="215" y="784" type="line"/>
		</contour>
		<contour>
			<point x="353" y="855" type="line"/>
			<point x="353" y="706" type="line"/>
			<point x="468" y="706" type="line"/>
			<point x="468" y="855" type="line"/>
		</contour>
		<contour>
			<point x="14" y="646" type="line"/>
			<point x="32" y="580"/>
			<point x="48" y="494"/>
			<point x="51" y="441" type="curve"/>
			<point x="134" y="491" type="line"/>
			<point x="129" y="543"/>
			<point x="111" y="625"/>
			<point x="91" y="689" type="curve"/>
		</contour>
		<contour>
			<point x="9" y="312" type="curve"/>
			<point x="38" y="180" type="line"/>
			<point x="83" y="214"/>
			<point x="129" y="251"/>
			<point x="173" y="289" type="curve"/>
			<point x="148" y="398" type="line"/>
			<point x="95" y="364"/>
			<point x="45" y="331"/>
		</contour>
		<contour>
			<point x="228" y="639" type="line"/>
			<point x="228" y="538" type="line"/>
			<point x="711" y="538" type="line"/>
			<point x="711" y="639" type="line"/>
		</contour>
		<contour>
			<point x="211" y="176" type="line"/>
			<point x="211" y="73" type="line"/>
			<point x="721" y="73" type="line"/>
			<point x="721" y="176" type="line"/>
		</contour>
		<contour>
			<point x="323" y="679" type="line"/>
			<point x="323" y="485" type="line"/>
			<point x="416" y="485" type="line"/>
			<point x="416" y="679" type="line"/>
		</contour>
		<contour>
			<point x="503" y="679" type="line"/>
			<point x="503" y="485" type="line"/>
			<point x="596" y="485" type="line"/>
			<point x="596" y="679" type="line"/>
		</contour>
		<contour>
			<point x="346" y="316" type="line"/>
			<point x="574" y="316" type="line"/>
			<point x="574" y="291" type="line"/>
			<point x="346" y="291" type="line"/>
		</contour>
		<contour>
			<point x="346" y="421" type="line"/>
			<point x="574" y="421" type="line"/>
			<point x="574" y="397" type="line"/>
			<point x="346" y="397" type="line"/>
		</contour>
		<contour>
			<point x="249" y="507" type="line"/>
			<point x="249" y="205" type="line"/>
			<point x="676" y="205" type="line"/>
			<point x="676" y="507" type="line"/>
		</contour>
		<contour>
			<point x="411" y="232" type="line"/>
			<point x="403" y="98"/>
			<point x="384" y="38"/>
			<point x="197" y="7" type="curve"/>
			<point x="214" y="-18"/>
			<point x="236" y="-65"/>
			<point x="242" y="-96" type="curve"/>
			<point x="461" y="-49"/>
			<point x="495" y="49"/>
			<point x="506" y="232" type="curve"/>
		</contour>
		<contour>
			<point x="518" y="117" type="curve"/>
			<point x="434" y="101" type="line"/>
			<point x="476" y="-20"/>
			<point x="546" y="-77"/>
			<point x="682" y="-95" type="curve"/>
			<point x="693" y="-61"/>
			<point x="716" y="-12"/>
			<point x="736" y="14" type="curve"/>
			<point x="621" y="18"/>
			<point x="550" y="47"/>
		</contour>
	</outline>
</glyph>
<glyph name="c18868" format="1">
	<advance width="750"/>
	<outline>
		<contour>
			<point x="299" y="210" type="line"/>
			<point x="299" y="94" type="line"/>
			<point x="732" y="94" type="line"/>
			<point x="732" y="210" type="line"/>
		</contour>
		<contour>
			<point x="316" y="397" type="line"/>
			<point x="316" y="283" type="line"/>
			<point x="718" y="283" type="line"/>
			<point x="718" y="397" type="line"/>
		</contour>
		<contour>
			<point x="357" y="825" type="line"/>
			<point x="357" y="730" type="line"/>
			<point x="421" y="730" type="line"/>
			<point x="421" y="685" type="line"/>
			<point x="357" y="685" type="line"/>
			<point x="357" y="590" type="line"/>
			<point x="498" y="590" type="line"/>
			<point x="498" y="825" type="line"/>
		</contour>
		<contour>
			<point x="387" y="467" type="line"/>
			<point x="387" y="147" type="line"/>
			<point x="485" y="147" type="line"/>
			<point x="485" y="467" type="line"/>
		</contour>
		<contour>
			<point x="546" y="467" type="line"/>
			<point x="546" y="147" type="line"/>
			<point x="646" y="147" type="line"/>
			<point x="646" y="467" type="line"/>
		</contour>
		<contour>
			<point x="306" y="825" type="line"/>
			<point x="306" y="575" type="line"/>
			<point x="306" y="477"/>
			<point x="323" y="449"/>
			<point x="386" y="449" type="curve"/>
			<point x="398" y="449"/>
			<point x="426" y="449"/>
			<point x="440" y="449" type="curve"/>
			<point x="485" y="449"/>
			<point x="506" y="472"/>
			<point x="515" y="549" type="curve"/>
			<point x="493" y="556"/>
			<point x="461" y="572"/>
			<point x="446" y="588" type="curve"/>
			<point x="444" y="553"/>
			<point x="441" y="547"/>
			<point x="430" y="547" type="curve"/>
			<point x="424" y="547"/>
			<point x="404" y="547"/>
			<point x="399" y="547" type="curve"/>
			<point x="386" y="547"/>
			<point x="385" y="550"/>
			<point x="385" y="576" type="curve"/>
			<point x="385" y="825" type="line"/>
		</contour>
		<contour>
			<point x="563" y="825" type="line"/>
			<point x="563" y="730" type="line"/>
			<point x="631" y="730" type="line"/>
			<point x="631" y="685" type="line"/>
			<point x="563" y="685" type="line"/>
			<point x="563" y="590" type="line"/>
			<point x="711" y="590" type="line"/>
			<point x="711" y="825" type="line"/>
		</contour>
		<contour>
			<point x="513" y="825" type="line"/>
			<point x="513" y="575" type="line"/>
			<point x="513" y="476"/>
			<point x="530" y="447"/>
			<point x="594" y="447" type="curve"/>
			<point x="608" y="447"/>
			<point x="636" y="447"/>
			<point x="650" y="447" type="curve"/>
			<point x="696" y="447"/>
			<point x="718" y="470"/>
			<point x="728" y="549" type="curve"/>
			<point x="704" y="555"/>
			<point x="672" y="572"/>
			<point x="657" y="588" type="curve"/>
			<point x="655" y="553"/>
			<point x="652" y="547"/>
			<point x="641" y="547" type="curve"/>
			<point x="634" y="547"/>
			<point x="614" y="547"/>
			<point x="608" y="547" type="curve"/>
			<point x="595" y="547"/>
			<point x="593" y="550"/>
			<point x="593" y="577" type="curve"/>
			<point x="593" y="825" type="line"/>
		</contour>
		<contour>
			<point x="532" y="32" type="line"/>
			<point x="578" y="-4"/>
			<point x="638" y="-59"/>
			<point x="665" y="-97" type="curve"/>
			<point x="735" y="-8" type="line"/>
			<point x="704" y="29"/>
			<point x="643" y="80"/>
			<point x="597" y="112" type="curve"/>
		</contour>
		<contour>
			<point x="425" y="107" type="line"/>
			<point x="394" y="67"/>
			<point x="332" y="15"/>
			<point x="280" y="-12" type="curve"/>
			<point x="302" y="-34"/>
			<point x="332" y="-72"/>
			<point x="349" y="-96" type="curve"/>
			<point x="401" y="-67"/>
			<point x="467" y="-12"/>
			<point x="507" y="36" type="curve"/>
		</contour>
		<contour>
			<point x="26" y="49" type="curve"/>
			<point x="48" y="-79" type="line"/>
			<point x="120" y="-61"/>
			<point x="211" y="-39"/>
			<point x="296" y="-16" type="curve"/>
			<point x="288" y="105" type="line"/>
			<point x="194" y="83"/>
			<point x="94" y="61"/>
		</contour>
		<contour>
			<point x="65" y="602" type="line"/>
			<point x="65" y="484" type="line"/>
			<point x="275" y="484" type="line"/>
			<point x="275" y="602" type="line"/>
		</contour>
		<contour>
			<point x="38" y="433" type="line"/>
			<point x="38" y="312" type="line"/>
			<point x="288" y="312" type="line"/>
			<point x="288" y="433" type="line"/>
		</contour>
		<contour>
			<point x="36" y="258" type="line"/>
			<point x="45" y="205"/>
			<point x="54" y="136"/>
			<point x="56" y="90" type="curve"/>
			<point x="124" y="114" type="line"/>
			<point x="121" y="159"/>
			<point x="111" y="227"/>
			<point x="101" y="279" type="curve"/>
		</contour>
		<contour>
			<point x="233" y="286" type="line"/>
			<point x="228" y="241"/>
			<point x="218" y="175"/>
			<point x="209" y="133" type="curve"/>
			<point x="272" y="112" type="line"/>
			<point x="281" y="151"/>
			<point x="292" y="209"/>
			<point x="305" y="264" type="curve"/>
		</contour>
		<contour>
			<point x="123" y="556" type="line"/>
			<point x="123" y="22" type="line"/>
			<point x="212" y="41" type="line"/>
			<point x="212" y="556" type="line"/>
		</contour>
		<contour>
			<point x="125" y="855" type="line"/>
			<point x="104" y="777"/>
			<point x="64" y="685"/>
			<point x="4" y="615" type="curve"/>
			<point x="24" y="596"/>
			<point x="55" y="549"/>
			<point x="68" y="520" type="curve"/>
			<point x="142" y="613"/>
			<point x="185" y="716"/>
			<point x="213" y="792" type="curve"/>
			<point x="213" y="830" type="line"/>
			<point x="183" y="830" type="line"/>
			<point x="183" y="855" type="line"/>
		</contour>
		<contour>
			<point x="137" y="855" type="line"/>
			<point x="137" y="756" type="line"/>
			<point x="152" y="756" type="line"/>
			<point x="186" y="713"/>
			<point x="229" y="627"/>
			<point x="246" y="578" type="curve"/>
			<point x="320" y="685" type="line"/>
			<point x="299" y="737"/>
			<point x="251" y="806"/>
			<point x="212" y="855" type="curve"/>
		</contour>
	</outline>
</glyph>
<glyph name="c19523" format="1">
	<advance width="750"/>
	<outline>
		<contour>
			<point x="19" y="363" type="line"/>
			<point x="19" y="234" type="line"/>
			<point x="218" y="234" type="line"/>
			<point x="218" y="363" type="line"/>
		</contour>
		<contour>
			<point x="183" y="855" type="line"/>
			<point x="183" y="-95" type="line"/>
			<point x="285" y="-95" type="line"/>
			<point x="285" y="855" type="line"/>
		</contour>
		<contour>
			<point x="56" y="309" type="line"/>
			<point x="56" y="251" type="line"/>
			<point x="56" y="185"/>
			<point x="52" y="51"/>
			<point x="13" y="-34" type="curve"/>
			<point x="37" y="-47"/>
			<point x="79" y="-78"/>
			<point x="98" y="-98" type="curve"/>
			<point x="146" y="4"/>
			<point x="154" y="169"/>
			<point x="154" y="247" type="curve"/>
			<point x="154" y="309" type="line"/>
		</contour>
		<contour>
			<point x="296" y="734" type="line"/>
			<point x="296" y="618" type="line"/>
			<point x="731" y="618" type="line"/>
			<point x="731" y="734" type="line"/>
		</contour>
		<contour>
			<point x="298" y="285" type="line"/>
			<point x="298" y="170" type="line"/>
			<point x="731" y="170" type="line"/>
			<point x="731" y="285" type="line"/>
		</contour>
		<contour>
			<point x="461" y="355" type="line"/>
			<point x="461" y="-95" type="line"/>
			<point x="563" y="-95" type="line"/>
			<point x="563" y="355" type="line"/>
		</contour>
		<contour>
			<point x="437" y="217" type="line"/>
			<point x="404" y="140"/>
			<point x="341" y="63"/>
			<point x="275" y="22" type="curve"/>
			<point x="297" y="-2"/>
			<point x="327" y="-50"/>
			<point x="342" y="-81" type="curve"/>
			<point x="413" y="-25"/>
			<point x="476" y="76"/>
			<point x="515" y="181" type="curve"/>
		</contour>
		<contour>
			<point x="589" y="219" type="curve"/>
			<point x="518" y="183" type="line"/>
			<point x="556" y="86"/>
			<point x="617" y="-17"/>
			<point x="677" y="-75" type="curve"/>
			<point x="692" y="-42"/>
			<point x="725" y="5"/>
			<point x="746" y="29" type="curve"/>
			<point x="688" y="72"/>
			<point x="623" y="148"/>
		</contour>
		<contour>
			<point x="460" y="856" type="line"/>
			<point x="460" y="481" type="line"/>
			<point x="682" y="481" type="line"/>
			<point x="682" y="833" type="line"/>
			<point x="588" y="834" type="line"/>
			<point x="588" y="579" type="line"/>
			<point x="550" y="579" type="line"/>
			<point x="550" y="856" type="line"/>
		</contour>
		<contour>
			<point x="337" y="836" type="line"/>
			<point x="337" y="336" type="line"/>
			<point x="721" y="336" type="line"/>
			<point x="721" y="449" type="line"/>
			<point x="428" y="449" type="line"/>
			<point x="428" y="836" type="line"/>
		</contour>
		<contour>
			<point x="47" y="799" type="line"/>
			<point x="47" y="451" type="line"/>
			<point x="248" y="451" type="line"/>
			<point x="248" y="580" type="line"/>
			<point x="144" y="580" type="line"/>
			<point x="144" y="799" type="line"/>
		</contour>
	</outline>
</glyph>
<glyph name="c19753" format="1">
	<advance width="750"/>
	<outline>
		<contour>
			<point x="38" y="815" type="line"/>
			<point x="38" y="720" type="line"/>
			<point x="714" y="720" type="line"/>
			<point x="714" y="815" type="line"/>
		</contour>
		<contour>
			<point x="202" y="855" type="line"/>
			<point x="202" y="679" type="line"/>
			<point x="308" y="679" type="line"/>
			<point x="308" y="855" type="line"/>
		</contour>
		<contour>
			<point x="440" y="855" type="line"/>
			<point x="440" y="679" type="line"/>
			<point x="546" y="679" type="line"/>
			<point x="546" y="855" type="line"/>
		</contour>
		<contour>
			<point x="89" y="696" type="line"/>
			<point x="89" y="611" type="line"/>
			<point x="659" y="611" type="line"/>
			<point x="659" y="696" type="line"/>
		</contour>
		<contour>
			<point x="157" y="494" type="line"/>
			<point x="157" y="433" type="line"/>
			<point x="299" y="433" type="line"/>
			<point x="299" y="494" type="line"/>
		</contour>
		<contour>
			<point x="147" y="414" type="line"/>
			<point x="147" y="352" type="line"/>
			<point x="299" y="352" type="line"/>
			<point x="299" y="414" type="line"/>
		</contour>
		<contour>
			<point x="446" y="413" type="line"/>
			<point x="446" y="351" type="line"/>
			<point x="599" y="351" type="line"/>
			<point x="599" y="413" type="line"/>
		</contour>
		<contour>
			<point x="427" y="0" type="line"/>
			<point x="427" y="-79" type="line"/>
			<point x="613" y="-79" type="line"/>
			<point x="613" y="0" type="line"/>
		</contour>
		<contour>
			<point x="216" y="130" type="line"/>
			<point x="216" y="52" type="line"/>
			<point x="335" y="52" type="line"/>
			<point x="335" y="130" type="line"/>
		</contour>
		<contour>
			<point x="447" y="494" type="line"/>
			<point x="447" y="433" type="line"/>
			<point x="590" y="433" type="line"/>
			<point x="590" y="494" type="line"/>
		</contour>
		<contour>
			<point x="320" y="666" type="line"/>
			<point x="320" y="351" type="line"/>
			<point x="426" y="351" type="line"/>
			<point x="426" y="666" type="line"/>
		</contour>
		<contour>
			<point x="38" y="591" type="line"/>
			<point x="38" y="444" type="line"/>
			<point x="134" y="444" type="line"/>
			<point x="134" y="513" type="line"/>
			<point x="614" y="513" type="line"/>
			<point x="614" y="444" type="line"/>
			<point x="714" y="444" type="line"/>
			<point x="714" y="591" type="line"/>
		</contour>
		<contour>
			<point x="155" y="257" type="line"/>
			<point x="246" y="257" type="line"/>
			<point x="246" y="229" type="line"/>
			<point x="155" y="229" type="line"/>
		</contour>
		<contour>
			<point x="70" y="332" type="line"/>
			<point x="70" y="153" type="line"/>
			<point x="337" y="153" type="line"/>
			<point x="337" y="332" type="line"/>
		</contour>
		<contour>
			<point x="393" y="104" type="line"/>
			<point x="393" y="-94" type="line"/>
			<point x="483" y="-94" type="line"/>
			<point x="483" y="23" type="line"/>
			<point x="572" y="23" type="line"/>
			<point x="572" y="-92" type="line"/>
			<point x="667" y="-92" type="line"/>
			<point x="667" y="104" type="line"/>
		</contour>
		<contour>
			<point x="459" y="282" type="curve"/>
			<point x="395" y="255" type="line"/>
			<point x="455" y="151"/>
			<point x="560" y="90"/>
			<point x="691" y="67" type="curve"/>
			<point x="701" y="93"/>
			<point x="721" y="133"/>
			<point x="737" y="154" type="curve"/>
			<point x="614" y="167"/>
			<point x="509" y="209"/>
		</contour>
		<contour>
			<point x="452" y="362" type="line"/>
			<point x="428" y="315"/>
			<point x="383" y="270"/>
			<point x="317" y="237" type="curve"/>
			<point x="334" y="223"/>
			<point x="359" y="190"/>
			<point x="371" y="167" type="curve"/>
			<point x="446" y="214"/>
			<point x="494" y="270"/>
			<point x="531" y="343" type="curve"/>
		</contour>
		<contour>
			<point x="596" y="326" type="line"/>
			<point x="596" y="311" type="line"/>
			<point x="551" y="220"/>
			<point x="437" y="159"/>
			<point x="324" y="133" type="curve"/>
			<point x="338" y="114"/>
			<point x="357" y="79"/>
			<point x="366" y="56" type="curve"/>
			<point x="493" y="93"/>
			<point x="617" y="162"/>
			<point x="677" y="292" type="curve"/>
			<point x="624" y="330" type="line"/>
			<point x="611" y="326" type="line"/>
		</contour>
		<contour>
			<point x="38" y="12" type="curve"/>
			<point x="42" y="-81" type="line"/>
			<point x="126" y="-74"/>
			<point x="242" y="-65"/>
			<point x="354" y="-55" type="curve"/>
			<point x="355" y="33" type="line"/>
			<point x="239" y="24"/>
			<point x="119" y="16"/>
		</contour>
		<contour>
			<point x="467" y="326" type="line"/>
			<point x="427" y="251" type="line"/>
			<point x="616" y="251" type="line"/>
			<point x="616" y="326" type="line"/>
		</contour>
		<contour>
			<point x="169" y="180" type="line"/>
			<point x="169" y="-19" type="line"/>
			<point x="257" y="-14" type="line"/>
			<point x="257" y="180" type="line"/>
		</contour>
		<contour>
			<point x="74" y="136" type="line"/>
			<point x="74" y="-35" type="line"/>
			<point x="150" y="-25" type="line"/>
			<point x="150" y="136" type="line"/>
		</contour>
	</outline>
</glyph>
<glyph name="c2057" format="1">
	<advance width="750"/>
	<outline>
		<contour>
			<point x="268" y="777" type="line"/>
			<point x="268" y="653" type="line"/>
			<point x="721" y="653" type="line"/>
			<point x="721" y="777" type="line"/>
		</contour>
		<contour>
			<point x="380" y="244" type="line"/>
			<point x="380" y="128" type="line"/>
			<point x="502" y="128" type="line"/>
			<point x="502" y="244" type="line"/>
		</contour>
		<contour>
			<point x="331" y="338" type="line"/>
			<point x="331" y="-4" type="line"/>
			<point x="422" y="-4" type="line"/>
			<point x="422" y="338" type="line"/>
		</contour>
		<contour>
			<point x="413" y="849" type="line"/>
			<point x="413" y="696" type="line"/>
			<point x="524" y="696" type="line"/>
			<point x="524" y="849" type="line"/>
		</contour>
		<contour>
			<point x="357" y="663" type="line"/>
			<point x="357" y="393" type="line"/>
			<point x="444" y="393" type="line"/>
			<point x="444" y="663" type="line"/>
		</contour>
		<contour>
			<point x="485" y="663" type="line"/>
			<point x="485" y="393" type="line"/>
			<point x="572" y="393" type="line"/>
			<point x="572" y="663" type="line"/>
		</contour>
		<contour>
			<point x="668" y="279" type="line"/>
			<point x="638" y="250"/>
			<point x="586" y="209"/>
			<point x="552" y="190" type="curve"/>
			<point x="601" y="107" type="line"/>
			<point x="637" y="125"/>
			<point x="687" y="156"/>
			<point x="727" y="188" type="curve"/>
		</contour>
		<contour>
			<point x="274" y="599" type="line"/>
			<point x="274" y="483" type="line"/>
			<point x="610" y="483" type="line"/>
			<point x="610" y="423" type="line"/>
			<point x="274" y="423" type="line"/>
			<point x="274" y="307" type="line"/>
			<point x="710" y="307" type="line"/>
			<point x="710" y="599" type="line"/>
		</contour>
		<contour>
			<point x="517" y="338" type="line"/>
			<point x="517" y="65" type="line"/>
			<point x="517" y="-44"/>
			<point x="533" y="-80"/>
			<point x="605" y="-80" type="curve"/>
			<point x="618" y="-80"/>
			<point x="638" y="-80"/>
			<point x="653" y="-80" type="curve"/>
			<point x="707" y="-80"/>
			<point x="731" y="-44"/>
			<point x="739" y="81" type="curve"/>
			<point x="714" y="89"/>
			<point x="675" y="109"/>
			<point x="657" y="129" type="curve"/>
			<point x="656" y="46"/>
			<point x="653" y="32"/>
			<point x="642" y="32" type="curve"/>
			<point x="638" y="32"/>
			<point x="626" y="32"/>
			<point x="622" y="32" type="curve"/>
			<point x="612" y="32"/>
			<point x="611" y="36"/>
			<point x="611" y="66" type="curve"/>
			<point x="611" y="338" type="line"/>
		</contour>
		<contour>
			<point x="284" y="36" type="curve"/>
			<point x="301" y="-88" type="line"/>
			<point x="362" y="-75"/>
			<point x="437" y="-59"/>
			<point x="509" y="-42" type="curve"/>
			<point x="503" y="71" type="line"/>
			<point x="423" y="57"/>
			<point x="341" y="44"/>
		</contour>
		<contour>
			<point x="217" y="777" type="line"/>
			<point x="217" y="446" type="line"/>
			<point x="217" y="302"/>
			<point x="213" y="104"/>
			<point x="161" y="-29" type="curve"/>
			<point x="185" y="-41"/>
			<point x="231" y="-76"/>
			<point x="251" y="-98" type="curve"/>
			<point x="308" y="48"/>
			<point x="317" y="285"/>
			<point x="317" y="446" type="curve"/>
			<point x="317" y="777" type="line"/>
		</contour>
		<contour>
			<point x="44" y="741" type="line"/>
			<point x="84" y="716"/>
			<point x="137" y="673"/>
			<point x="160" y="642" type="curve"/>
			<point x="224" y="758" type="line"/>
			<point x="198" y="789"/>
			<point x="145" y="826"/>
			<point x="104" y="847" type="curve"/>
		</contour>
		<contour>
			<point x="17" y="475" type="line"/>
			<point x="58" y="450"/>
			<point x="110" y="409"/>
			<point x="134" y="377" type="curve"/>
			<point x="198" y="494" type="line"/>
			<point x="172" y="525"/>
			<point x="117" y="561"/>
			<point x="77" y="582" type="curve"/>
		</contour>
		<contour>
			<point x="19" y="-12" type="curve"/>
			<point x="118" y="-85" type="line"/>
			<point x="148" y="16"/>
			<point x="177" y="128"/>
			<point x="202" y="237" type="curve"/>
			<point x="113" y="312" type="line"/>
			<point x="84" y="192"/>
			<point x="47" y="67"/>
		</contour>
	</outline>
</glyph>
<glyph name="c21305" format="1">
	<advance width="750"/>
	<outline>
		<contour>
			<point x="168" y="49" type="line"/>
			<point x="168" y="-67" type="line"/>
			<point x="590" y="-67" type="line"/>
			<point x="590" y="49" type="line"/>
		</contour>
		<contour>
			<point x="110" y="209" type="line"/>
			<point x="110" y="-95" type="line"/>
			<point x="212" y="-95" type="line"/>
			<point x="212" y="93" type="line"/>
			<point x="541" y="93" type="line"/>
			<point x="541" y="-89" type="line"/>
			<point x="649" y="-89" type="line"/>
			<point x="649" y="209" type="line"/>
		</contour>
		<contour>
			<point x="245" y="792" type="line"/>
			<point x="245" y="697" type="line"/>
			<point x="721" y="697" type="line"/>
			<point x="721" y="792" type="line"/>
		</contour>
		<contour>
			<point x="34" y="632" type="line"/>
			<point x="78" y="609"/>
			<point x="134" y="569"/>
			<point x="161" y="539" type="curve"/>
			<point x="211" y="630" type="line"/>
			<point x="182" y="660"/>
			<point x="125" y="695"/>
			<point x="81" y="715" type="curve"/>
		</contour>
		<contour>
			<point x="73" y="768" type="line"/>
			<point x="116" y="745"/>
			<point x="170" y="706"/>
			<point x="196" y="677" type="curve"/>
			<point x="246" y="767" type="line"/>
			<point x="218" y="796"/>
			<point x="163" y="831"/>
			<point x="120" y="850" type="curve"/>
		</contour>
		<contour>
			<point x="311" y="840" type="line"/>
			<point x="320" y="821"/>
			<point x="327" y="795"/>
			<point x="330" y="778" type="curve"/>
			<point x="423" y="797" type="line"/>
			<point x="419" y="815"/>
			<point x="410" y="840"/>
			<point x="401" y="858" type="curve"/>
		</contour>
		<contour>
			<point x="380" y="529" type="line"/>
			<point x="573" y="529" type="line"/>
			<point x="573" y="507" type="line"/>
			<point x="380" y="507" type="line"/>
		</contour>
		<contour>
			<point x="380" y="452" type="line"/>
			<point x="573" y="452" type="line"/>
			<point x="573" y="429" type="line"/>
			<point x="380" y="429" type="line"/>
		</contour>
		<contour>
			<point x="380" y="605" type="line"/>
			<point x="573" y="605" type="line"/>
			<point x="573" y="584" type="line"/>
			<point x="380" y="584" type="line"/>
		</contour>
		<contour>
			<point x="280" y="670" type="line"/>
			<point x="280" y="365" type="line"/>
			<point x="678" y="365" type="line"/>
			<point x="678" y="670" type="line"/>
		</contour>
		<contour>
			<point x="212" y="540" type="line"/>
			<point x="33" y="540" type="line"/>
			<point x="33" y="439" type="line"/>
			<point x="113" y="439" type="line"/>
			<point x="113" y="353" type="line"/>
			<point x="212" y="353" type="line"/>
		</contour>
		<contour>
			<point x="421" y="737" type="line"/>
			<point x="420" y="713"/>
			<point x="416" y="680"/>
			<point x="411" y="651" type="curve"/>
			<point x="497" y="637" type="line"/>
			<point x="506" y="661"/>
			<point x="517" y="691"/>
			<point x="529" y="729" type="curve"/>
		</contour>
		<contour>
			<point x="550" y="858" type="line"/>
			<point x="545" y="841"/>
			<point x="533" y="818"/>
			<point x="524" y="797" type="curve"/>
			<point x="609" y="777" type="line"/>
			<point x="619" y="793"/>
			<point x="631" y="810"/>
			<point x="647" y="838" type="curve"/>
		</contour>
		<contour>
			<point x="212" y="411" type="curve"/>
			<point x="140" y="411" type="line"/>
			<point x="103" y="385"/>
			<point x="62" y="359"/>
			<point x="26" y="340" type="curve"/>
			<point x="61" y="227" type="line"/>
			<point x="104" y="260"/>
			<point x="140" y="289"/>
			<point x="176" y="319" type="curve"/>
			<point x="213" y="258"/>
			<point x="260" y="238"/>
			<point x="333" y="235" type="curve"/>
			<point x="428" y="230"/>
			<point x="609" y="232"/>
			<point x="708" y="238" type="curve"/>
			<point x="712" y="270"/>
			<point x="725" y="321"/>
			<point x="734" y="347" type="curve"/>
			<point x="625" y="336"/>
			<point x="427" y="333"/>
			<point x="333" y="338" type="curve"/>
			<point x="273" y="341"/>
			<point x="233" y="359"/>
		</contour>
	</outline>
</glyph>
<glyph name="c21932" format="1">
	<advance width="750"/>
	<outline>
		<contour>
			<point x="266" y="46" type="line"/>
			<point x="266" y="-74" type="line"/>
			<point x="732" y="-74" type="line"/>
			<point x="732" y="46" type="line"/>
		</contour>
		<contour>
			<point x="334" y="212" type="line"/>
			<point x="334" y="100" type="line"/>
			<point x="686" y="100" type="line"/>
			<point x="686" y="212" type="line"/>
		</contour>
		<contour>
			<point x="410" y="588" type="line"/>
			<point x="593" y="588" type="line"/>
			<point x="593" y="556" type="line"/>
			<point x="410" y="556" type="line"/>
		</contour>
		<contour>
			<point x="410" y="720" type="line"/>
			<point x="593" y="720" type="line"/>
			<point x="593" y="688" type="line"/>
			<point x="410" y="688" type="line"/>
		</contour>
		<contour>
			<point x="312" y="827" type="line"/>
			<point x="312" y="449" type="line"/>
			<point x="695" y="449" type="line"/>
			<point x="695" y="827" type="line"/>
		</contour>
		<contour>
			<point x="453" y="459" type="line"/>
			<point x="453" y="4" type="line"/>
			<point x="557" y="4" type="line"/>
			<point x="557" y="459" type="line"/>
		</contour>
		<contour>
			<point x="327" y="457" type="line"/>
			<point x="310" y="379"/>
			<point x="277" y="301"/>
			<point x="236" y="252" type="curve"/>
			<point x="258" y="234"/>
			<point x="296" y="195"/>
			<point x="314" y="174" type="curve"/>
			<point x="357" y="234"/>
			<point x="398" y="330"/>
			<point x="421" y="427" type="curve"/>
		</contour>
		<contour>
			<point x="363" y="378" type="line"/>
			<point x="320" y="264" type="line"/>
			<point x="704" y="264" type="line"/>
			<point x="704" y="378" type="line"/>
		</contour>
		<contour>
			<point x="116" y="840" type="line"/>
			<point x="116" y="496" type="line"/>
			<point x="116" y="327"/>
			<point x="105" y="140"/>
			<point x="11" y="5" type="curve"/>
			<point x="32" y="-16"/>
			<point x="65" y="-65"/>
			<point x="80" y="-96" type="curve"/>
			<point x="197" y="66"/>
			<point x="211" y="289"/>
			<point x="211" y="495" type="curve"/>
			<point x="211" y="840" type="line"/>
		</contour>
		<contour>
			<point x="36" y="640" type="line"/>
			<point x="38" y="554"/>
			<point x="30" y="448"/>
			<point x="10" y="389" type="curve"/>
			<point x="83" y="349" type="line"/>
			<point x="106" y="422"/>
			<point x="113" y="534"/>
			<point x="110" y="628" type="curve"/>
		</contour>
		<contour>
			<point x="233" y="704" type="line"/>
			<point x="224" y="640"/>
			<point x="204" y="550"/>
			<point x="187" y="492" type="curve"/>
			<point x="246" y="457" type="line"/>
			<point x="267" y="509"/>
			<point x="292" y="592"/>
			<point x="319" y="662" type="curve"/>
		</contour>
		<contour>
			<point x="196" y="316" type="curve"/>
			<point x="132" y="253" type="line"/>
			<point x="157" y="196"/>
			<point x="200" y="88"/>
			<point x="221" y="20" type="curve"/>
			<point x="294" y="120" type="line"/>
			<point x="280" y="150"/>
			<point x="215" y="286"/>
		</contour>
	</outline>
</glyph>
<glyph name="c22050" format="1">
	<advance width="750"/>
	<outline>
		<contour>
			<point x="501" y="705" type="line"/>
			<point x="562" y="705" type="line"/>
			<point x="562" y="641" type="line"/>
			<point x="501" y="641" type="line"/>
		</contour>
		<contour>
			<point x="342" y="705" type="line"/>
			<point x="402" y="705" type="line"/>
			<point x="402" y="641" type="line"/>
			<point x="342" y="641" type="line"/>
		</contour>
		<contour>
			<point x="184" y="705" type="line"/>
			<point x="243" y="705" type="line"/>
			<point x="243" y="641" type="line"/>
			<point x="184" y="641" type="line"/>
		</contour>
		<contour>
			<point x="81" y="820" type="line"/>
			<point x="81" y="526" type="line"/>
			<point x="671" y="526" type="line"/>
			<point x="671" y="820" type="line"/>
		</contour>
		<contour>
			<point x="426" y="449" type="curve"/>
			<point x="344" y="418" type="line"/>
			<point x="407" y="210"/>
			<point x="506" y="58"/>
			<point x="662" y="-17" type="curve"/>
			<point x="677" y="22"/>
			<point x="710" y="80"/>
			<point x="733" y="110" type="curve"/>
			<point x="584" y="164"/>
			<point x="479" y="289"/>
		</contour>
		<contour>
			<point x="608" y="510" type="line"/>
			<point x="566" y="442"/>
			<point x="496" y="360"/>
			<point x="443" y="310" type="curve"/>
			<point x="517" y="230" type="line"/>
			<point x="572" y="276"/>
			<point x="642" y="349"/>
			<point x="702" y="419" type="curve"/>
		</contour>
		<contour>
			<point x="62" y="433" type="line"/>
			<point x="109" y="385"/>
			<point x="169" y="314"/>
			<point x="194" y="266" type="curve"/>
			<point x="279" y="353" type="line"/>
			<point x="250" y="401"/>
			<point x="187" y="467"/>
			<point x="140" y="511" type="curve"/>
		</contour>
		<contour>
			<point x="320" y="540" type="line"/>
			<point x="320" y="63" type="line"/>
			<point x="320" y="48"/>
			<point x="315" y="44"/>
			<point x="302" y="44" type="curve"/>
			<point x="288" y="43"/>
			<point x="241" y="44"/>
			<point x="204" y="46" type="curve"/>
			<point x="218" y="7"/>
			<point x="233" y="-55"/>
			<point x="238" y="-96" type="curve"/>
			<point x="300" y="-96"/>
			<point x="348" y="-94"/>
			<point x="383" y="-72" type="curve"/>
			<point x="419" y="-50"/>
			<point x="429" y="-12"/>
			<point x="429" y="60" type="curve"/>
			<point x="429" y="540" type="line"/>
		</contour>
		<contour>
			<point x="26" y="136" type="curve"/>
			<point x="67" y="-2" type="line"/>
			<point x="137" y="40"/>
			<point x="224" y="92"/>
			<point x="304" y="143" type="curve"/>
			<point x="281" y="266" type="line"/>
			<point x="188" y="216"/>
			<point x="89" y="164"/>
		</contour>
	</outline>
</glyph>
<glyph name="c22370" format="1">
	<advance width="750"/>
	<outline>
		<contour>
			<point x="38" y="801" type="line"/>
			<point x="38" y="698" type="line"/>
			<point x="713" y="698" type="line"/>
			<point x="713" y="801" type="line"/>
		</contour>
		<contour>
			<point x="201" y="855" type="line"/>
			<point x="201" y="652" type="line"/>
			<point x="307" y="652" type="line"/>
			<point x="307" y="855" type="line"/>
		</contour>
		<contour>
			<point x="440" y="855" type="line"/>
			<point x="440" y="652" type="line"/>
			<point x="547" y="652" type="line"/>
			<point x="547" y="855" type="line"/>
		</contour>
		<contour>
			<point x="492" y="574" type="line"/>
			<point x="564" y="574" type="line"/>
			<point x="564" y="546" type="line"/>
			<point x="492" y="546" type="line"/>
		</contour>
		<contour>
			<point x="336" y="574" type="line"/>
			<point x="407" y="574" type="line"/>
			<point x="407" y="546" type="line"/>
			<point x="336" y="546" type="line"/>
		</contour>
		<contour>
			<point x="182" y="574" type="line"/>
			<point x="251" y="574" type="line"/>
			<point x="251" y="546" type="line"/>
			<point x="182" y="546" type="line"/>
		</contour>
		<contour>
			<point x="86" y="668" type="line"/>
			<point x="86" y="453" type="line"/>
			<point x="665" y="453" type="line"/>
			<point x="665" y="668" type="line"/>
		</contour>
		<contour>
			<point x="230" y="257" type="line"/>
			<point x="524" y="257" type="line"/>
			<point x="524" y="235" type="line"/>
			<point x="230" y="235" type="line"/>
		</contour>
		<contour>
			<point x="230" y="162" type="line"/>
			<point x="524" y="162" type="line"/>
			<point x="524" y="139" type="line"/>
			<point x="230" y="139" type="line"/>
		</contour>
		<contour>
			<point x="230" y="352" type="line"/>
			<point x="524" y="352" type="line"/>
			<point x="524" y="330" type="line"/>
			<point x="230" y="330" type="line"/>
		</contour>
		<contour>
			<point x="125" y="429" type="line"/>
			<point x="125" y="62" type="line"/>
			<point x="635" y="62" type="line"/>
			<point x="635" y="429" type="line"/>
		</contour>
		<contour>
			<point x="401" y="5" type="line"/>
			<point x="482" y="-27"/>
			<point x="562" y="-68"/>
			<point x="605" y="-96" type="curve"/>
			<point x="743" y="-30" type="line"/>
			<point x="685" y="-1"/>
			<point x="584" y="43"/>
			<point x="500" y="74" type="curve"/>
		</contour>
		<contour>
			<point x="251" y="72" type="line"/>
			<point x="197" y="40"/>
			<point x="104" y="12"/>
			<point x="20" y="-3" type="curve"/>
			<point x="43" y="-25"/>
			<point x="79" y="-73"/>
			<point x="97" y="-100" type="curve"/>
			<point x="176" y="-76"/>
			<point x="278" y="-33"/>
			<point x="344" y="15" type="curve"/>
		</contour>
	</outline>
</glyph>
<glyph name="c22450" format="1">
	<advance width="750"/>
	<outline>
		<contour>
			<point x="122" y="848" type="line"/>
			<point x="122" y="600" type="line"/>
			<point x="202" y="600" type="line"/>
			<point x="202" y="848" type="line"/>
		</contour>
		<contour>
			<point x="87" y="676" type="line"/>
			<point x="87" y="563" type="line"/>
			<point x="214" y="563" type="line"/>
			<point x="214" y="400" type="line"/>
			<point x="87" y="400" type="line"/>
			<point x="87" y="287" type="line"/>
			<point x="286" y="287" type="line"/>
			<point x="286" y="676" type="line"/>
		</contour>
		<contour>
			<point x="41" y="676" type="line"/>
			<point x="41" y="244" type="line"/>
			<point x="111" y="244" type="line"/>
			<point x="111" y="676" type="line"/>
		</contour>
		<contour>
			<point x="132" y="610" type="line"/>
			<point x="132" y="329" type="line"/>
			<point x="122" y="329" type="line"/>
			<point x="122" y="71" type="line"/>
			<point x="202" y="71" type="line"/>
			<point x="202" y="329" type="line"/>
			<point x="191" y="329" type="line"/>
			<point x="191" y="610" type="line"/>
		</contour>
		<contour>
			<point x="18" y="102" type="curve"/>
			<point x="33" y="-22" type="line"/>
			<point x="101" y="-4"/>
			<point x="185" y="18"/>
			<point x="265" y="40" type="curve"/>
			<point x="258" y="152" type="line"/>
			<point x="170" y="132"/>
			<point x="80" y="113"/>
		</contour>
		<contour>
			<point x="205" y="231" type="line"/>
			<point x="219" y="153"/>
			<point x="230" y="52"/>
			<point x="231" y="-14" type="curve"/>
			<point x="306" y="12" type="line"/>
			<point x="304" y="78"/>
			<point x="292" y="178"/>
			<point x="275" y="255" type="curve"/>
		</contour>
		<contour>
			<point x="299" y="204" type="line"/>
			<point x="299" y="85" type="line"/>
			<point x="732" y="85" type="line"/>
			<point x="732" y="204" type="line"/>
		</contour>
		<contour>
			<point x="316" y="389" type="line"/>
			<point x="316" y="275" type="line"/>
			<point x="718" y="275" type="line"/>
			<point x="718" y="389" type="line"/>
		</contour>
		<contour>
			<point x="351" y="832" type="line"/>
			<point x="351" y="737" type="line"/>
			<point x="419" y="737" type="line"/>
			<point x="419" y="692" type="line"/>
			<point x="351" y="692" type="line"/>
			<point x="351" y="597" type="line"/>
			<point x="497" y="597" type="line"/>
			<point x="497" y="832" type="line"/>
		</contour>
		<contour>
			<point x="387" y="475" type="line"/>
			<point x="387" y="155" type="line"/>
			<point x="485" y="155" type="line"/>
			<point x="485" y="475" type="line"/>
		</contour>
		<contour>
			<point x="546" y="475" type="line"/>
			<point x="546" y="155" type="line"/>
			<point x="646" y="155" type="line"/>
			<point x="646" y="475" type="line"/>
		</contour>
		<contour>
			<point x="308" y="832" type="line"/>
			<point x="308" y="582" type="line"/>
			<point x="308" y="484"/>
			<point x="326" y="456"/>
			<point x="389" y="456" type="curve"/>
			<point x="401" y="456"/>
			<point x="431" y="456"/>
			<point x="444" y="456" type="curve"/>
			<point x="489" y="456"/>
			<point x="511" y="479"/>
			<point x="520" y="556" type="curve"/>
			<point x="497" y="563"/>
			<point x="466" y="579"/>
			<point x="451" y="595" type="curve"/>
			<point x="449" y="560"/>
			<point x="446" y="554"/>
			<point x="434" y="554" type="curve"/>
			<point x="428" y="554"/>
			<point x="407" y="554"/>
			<point x="402" y="554" type="curve"/>
			<point x="389" y="554"/>
			<point x="387" y="557"/>
			<point x="387" y="583" type="curve"/>
			<point x="387" y="832" type="line"/>
		</contour>
		<contour>
			<point x="557" y="832" type="line"/>
			<point x="557" y="737" type="line"/>
			<point x="629" y="737" type="line"/>
			<point x="629" y="692" type="line"/>
			<point x="557" y="692" type="line"/>
			<point x="557" y="597" type="line"/>
			<point x="710" y="597" type="line"/>
			<point x="710" y="832" type="line"/>
		</contour>
		<contour>
			<point x="515" y="832" type="line"/>
			<point x="515" y="582" type="line"/>
			<point x="515" y="483"/>
			<point x="533" y="454"/>
			<point x="597" y="454" type="curve"/>
			<point x="611" y="454"/>
			<point x="641" y="454"/>
			<point x="654" y="454" type="curve"/>
			<point x="701" y="454"/>
			<point x="723" y="477"/>
			<point x="732" y="556" type="curve"/>
			<point x="710" y="562"/>
			<point x="677" y="579"/>
			<point x="662" y="595" type="curve"/>
			<point x="659" y="560"/>
			<point x="656" y="554"/>
			<point x="645" y="554" type="curve"/>
			<point x="638" y="554"/>
			<point x="617" y="554"/>
			<point x="611" y="554" type="curve"/>
			<point x="597" y="554"/>
			<point x="596" y="557"/>
			<point x="596" y="584" type="curve"/>
			<point x="596" y="832" type="line"/>
		</contour>
		<contour>
			<point x="532" y="32" type="line"/>
			<point x="578" y="-4"/>
			<point x="638" y="-59"/>
			<point x="665" y="-97" type="curve"/>
			<point x="735" y="-8" type="line"/>
			<point x="704" y="29"/>
			<point x="643" y="80"/>
			<point x="597" y="112" type="curve"/>
		</contour>
		<contour>
			<point x="425" y="107" type="line"/>
			<point x="394" y="67"/>
			<point x="332" y="15"/>
			<point x="280" y="-12" type="curve"/>
			<point x="302" y="-34"/>
			<point x="332" y="-72"/>
			<point x="349" y="-96" type="curve"/>
			<point x="401" y="-67"/>
			<point x="467" y="-12"/>
			<point x="507" y="36" type="curve"/>
		</contour>
	</outline>
</glyph>
<glyph name="c2645" format="1">
	<advance width="750"/>
	<outline>
		<contour>
			<point x="137" y="221" type="line"/>
			<point x="137" y="110" type="line"/>
			<point x="627" y="110" type="line"/>
			<point x="627" y="221" type="line"/>
		</contour>
		<contour>
			<point x="159" y="388" type="line"/>
			<point x="159" y="269" type="line"/>
			<point x="662" y="269" type="line"/>
			<point x="662" y="388" type="line"/>
		</contour>
		<contour>
			<point x="42" y="55" type="line"/>
			<point x="42" y="-69" type="line"/>
			<point x="711" y="-69" type="line"/>
			<point x="711" y="55" type="line"/>
		</contour>
		<contour>
			<point x="318" y="452" type="line"/>
			<point x="318" y="-3" type="line"/>
			<point x="431" y="-3" type="line"/>
			<point x="431" y="452" type="line"/>
		</contour>
		<contour>
			<point x="219" y="581" type="line"/>
			<point x="521" y="581" type="line"/>
			<point x="521" y="548" type="line"/>
			<point x="219" y="548" type="line"/>
		</contour>
		<contour>
			<point x="219" y="714" type="line"/>
			<point x="521" y="714" type="line"/>
			<point x="521" y="682" type="line"/>
			<point x="219" y="682" type="line"/>
		</contour>
		<contour>
			<point x="112" y="823" type="line"/>
			<point x="112" y="439" type="line"/>
			<point x="635" y="439" type="line"/>
			<point x="635" y="823" type="line"/>
		</contour>
		<contour>
			<point x="145" y="458" type="line"/>
			<point x="119" y="379"/>
			<point x="70" y="298"/>
			<point x="18" y="249" type="curve"/>
			<point x="44" y="229"/>
			<point x="88" y="185"/>
			<point x="109" y="159" type="curve"/>
			<point x="161" y="220"/>
			<point x="218" y="319"/>
			<point x="252" y="417" type="curve"/>
		</contour>
	</outline>
</glyph>
<glyph name="c2663" format="1">
	<advance width="750"/>
	<outline>
		<contour>
			<point x="371" y="40" type="line"/>
			<point x="371" y="-76" type="line"/>
			<point x="732" y="-76" type="line"/>
			<point x="732" y="40" type="line"/>
		</contour>
		<contour>
			<point x="395" y="212" type="line"/>
			<point x="395" y="102" type="line"/>
			<point x="702" y="102" type="line"/>
			<point x="702" y="212" type="line"/>
		</contour>
		<contour>
			<point x="500" y="454" type="line"/>
			<point x="500" y="22" type="line"/>
			<point x="596" y="22" type="line"/>
			<point x="596" y="454" type="line"/>
		</contour>
		<contour>
			<point x="482" y="581" type="line"/>
			<point x="607" y="581" type="line"/>
			<point x="607" y="547" type="line"/>
			<point x="482" y="547" type="line"/>
		</contour>
		<contour>
			<point x="482" y="711" type="line"/>
			<point x="607" y="711" type="line"/>
			<point x="607" y="677" type="line"/>
			<point x="482" y="677" type="line"/>
		</contour>
		<contour>
			<point x="389" y="818" type="line"/>
			<point x="389" y="440" type="line"/>
			<point x="704" y="440" type="line"/>
			<point x="704" y="818" type="line"/>
		</contour>
		<contour>
			<point x="402" y="440" type="line"/>
			<point x="389" y="376"/>
			<point x="363" y="313"/>
			<point x="328" y="271" type="curve"/>
			<point x="347" y="258"/>
			<point x="380" y="229"/>
			<point x="396" y="212" type="curve"/>
			<point x="432" y="260"/>
			<point x="464" y="337"/>
			<point x="482" y="417" type="curve"/>
		</contour>
		<contour>
			<point x="440" y="377" type="line"/>
			<point x="398" y="266" type="line"/>
			<point x="713" y="266" type="line"/>
			<point x="713" y="377" type="line"/>
		</contour>
		<contour>
			<point x="39" y="629" type="line"/>
			<point x="39" y="-87" type="line"/>
			<point x="119" y="-87" type="line"/>
			<point x="119" y="510" type="line"/>
			<point x="273" y="510" type="line"/>
			<point x="273" y="-73" type="line"/>
			<point x="358" y="-73" type="line"/>
			<point x="358" y="629" type="line"/>
		</contour>
		<contour>
			<point x="75" y="227" type="line"/>
			<point x="75" y="119" type="line"/>
			<point x="319" y="119" type="line"/>
			<point x="319" y="227" type="line"/>
		</contour>
		<contour>
			<point x="75" y="80" type="line"/>
			<point x="75" y="-31" type="line"/>
			<point x="319" y="-31" type="line"/>
			<point x="319" y="80" type="line"/>
		</contour>
		<contour>
			<point x="34" y="819" type="line"/>
			<point x="34" y="700" type="line"/>
			<point x="359" y="700" type="line"/>
			<point x="359" y="819" type="line"/>
		</contour>
		<contour>
			<point x="118" y="780" type="line"/>
			<point x="118" y="523" type="line"/>
			<point x="187" y="523" type="line"/>
			<point x="187" y="780" type="line"/>
		</contour>
		<contour>
			<point x="206" y="780" type="line"/>
			<point x="206" y="523" type="line"/>
			<point x="277" y="523" type="line"/>
			<point x="277" y="780" type="line"/>
		</contour>
		<contour>
			<point x="138" y="534" type="line"/>
			<point x="138" y="438" type="line"/>
			<point x="138" y="397"/>
			<point x="137" y="351"/>
			<point x="113" y="312" type="curve"/>
			<point x="124" y="304"/>
			<point x="145" y="281"/>
			<point x="153" y="268" type="curve"/>
			<point x="182" y="314"/>
			<point x="188" y="383"/>
			<point x="188" y="436" type="curve"/>
			<point x="188" y="534" type="line"/>
		</contour>
		<contour>
			<point x="206" y="534" type="line"/>
			<point x="206" y="393" type="line"/>
			<point x="206" y="327"/>
			<point x="215" y="310"/>
			<point x="252" y="310" type="curve"/>
			<point x="259" y="310"/>
			<point x="265" y="310"/>
			<point x="272" y="310" type="curve"/>
			<point x="297" y="310"/>
			<point x="312" y="323"/>
			<point x="319" y="357" type="curve"/>
			<point x="303" y="362"/>
			<point x="283" y="372"/>
			<point x="274" y="384" type="curve"/>
			<point x="272" y="381"/>
			<point x="271" y="380"/>
			<point x="263" y="380" type="curve"/>
			<point x="262" y="380"/>
			<point x="261" y="380"/>
			<point x="260" y="380" type="curve"/>
			<point x="256" y="380"/>
			<point x="255" y="381"/>
			<point x="255" y="395" type="curve"/>
			<point x="255" y="534" type="line"/>
		</contour>
	</outline>
</glyph>
<glyph name="c3555" format="1">
	<advance width="750"/>
	<outline>
		<contour>
			<point x="158" y="859" type="line"/>
			<point x="134" y="803"/>
			<point x="91" y="739"/>
			<point x="32" y="691" type="curve"/>
			<point x="56" y="674"/>
			<point x="93" y="636"/>
			<point x="111" y="607" type="curve"/>
			<point x="176" y="673"/>
			<point x="222" y="746"/>
			<point x="262" y="832" type="curve"/>
		</contour>
		<contour>
			<point x="185" y="770" type="line"/>
			<point x="101" y="658" type="line"/>
			<point x="679" y="658" type="line"/>
			<point x="679" y="770" type="line"/>
		</contour>
		<contour>
			<point x="187" y="282" type="line"/>
			<point x="117" y="189" type="line"/>
			<point x="316" y="189" type="line"/>
			<point x="316" y="282" type="line"/>
		</contour>
		<contour>
			<point x="41" y="606" type="line"/>
			<point x="41" y="492" type="line"/>
			<point x="710" y="492" type="line"/>
			<point x="710" y="606" type="line"/>
		</contour>
		<contour>
			<point x="55" y="445" type="line"/>
			<point x="55" y="333" type="line"/>
			<point x="704" y="333" type="line"/>
			<point x="704" y="445" type="line"/>
		</contour>
		<contour>
			<point x="151" y="730" type="line"/>
			<point x="151" y="392" type="line"/>
			<point x="249" y="392" type="line"/>
			<point x="249" y="730" type="line"/>
		</contour>
		<contour>
			<point x="277" y="730" type="line"/>
			<point x="277" y="392" type="line"/>
			<point x="365" y="392" type="line"/>
			<point x="365" y="730" type="line"/>
		</contour>
		<contour>
			<point x="394" y="730" type="line"/>
			<point x="394" y="392" type="line"/>
			<point x="482" y="392" type="line"/>
			<point x="482" y="730" type="line"/>
		</contour>
		<contour>
			<point x="511" y="730" type="line"/>
			<point x="511" y="392" type="line"/>
			<point x="611" y="392" type="line"/>
			<point x="611" y="730" type="line"/>
		</contour>
		<contour>
			<point x="176" y="372" type="line"/>
			<point x="145" y="295"/>
			<point x="83" y="228"/>
			<point x="17" y="188" type="curve"/>
			<point x="35" y="168"/>
			<point x="66" y="124"/>
			<point x="80" y="101" type="curve"/>
			<point x="151" y="154"/>
			<point x="221" y="240"/>
			<point x="262" y="340" type="curve"/>
		</contour>
		<contour>
			<point x="285" y="282" type="line"/>
			<point x="285" y="264" type="line"/>
			<point x="251" y="126"/>
			<point x="159" y="43"/>
			<point x="41" y="5" type="curve"/>
			<point x="59" y="-16"/>
			<point x="88" y="-68"/>
			<point x="99" y="-97" type="curve"/>
			<point x="226" y="-45"/>
			<point x="331" y="61"/>
			<point x="377" y="249" type="curve"/>
			<point x="320" y="285" type="line"/>
			<point x="304" y="282" type="line"/>
		</contour>
		<contour>
			<point x="104" y="136" type="line"/>
			<point x="128" y="110"/>
			<point x="158" y="72"/>
			<point x="171" y="47" type="curve"/>
			<point x="243" y="110" type="line"/>
			<point x="228" y="135"/>
			<point x="197" y="171"/>
			<point x="173" y="194" type="curve"/>
		</contour>
		<contour>
			<point x="371" y="288" type="line"/>
			<point x="371" y="178" type="line"/>
			<point x="699" y="178" type="line"/>
			<point x="699" y="288" type="line"/>
		</contour>
		<contour>
			<point x="332" y="113" type="line"/>
			<point x="332" y="6" type="line"/>
			<point x="717" y="6" type="line"/>
			<point x="717" y="113" type="line"/>
		</contour>
		<contour>
			<point x="516" y="343" type="line"/>
			<point x="516" y="-94" type="line"/>
			<point x="619" y="-94" type="line"/>
			<point x="619" y="343" type="line"/>
		</contour>
		<contour>
			<point x="397" y="240" type="line"/>
			<point x="397" y="55" type="line"/>
			<point x="485" y="55" type="line"/>
			<point x="485" y="240" type="line"/>
		</contour>
	</outline>
</glyph>
<glyph name="c3758" format="1">
	<advance width="750"/>
	<outline>
		<contour>
			<point x="69" y="202" type="line"/>
			<point x="69" y="108" type="line"/>
			<point x="576" y="108" type="line"/>
			<point x="576" y="202" type="line"/>
		</contour>
		<contour>
			<point x="209" y="518" type="line"/>
			<point x="530" y="518" type="line"/>
			<point x="530" y="492" type="line"/>
			<point x="209" y="492" type="line"/>
		</contour>
		<contour>
			<point x="209" y="612" type="line"/>
			<point x="530" y="612" type="line"/>
			<point x="530" y="586" type="line"/>
			<point x="209" y="586" type="line"/>
		</contour>
		<contour>
			<point x="111" y="684" type="line"/>
			<point x="111" y="420" type="line"/>
			<point x="634" y="420" type="line"/>
			<point x="634" y="684" type="line"/>
		</contour>
		<contour>
			<point x="508" y="330" type="line"/>
			<point x="578" y="330" type="line"/>
			<point x="578" y="293" type="line"/>
			<point x="508" y="293" type="line"/>
		</contour>
		<contour>
			<point x="340" y="330" type="line"/>
			<point x="409" y="330" type="line"/>
			<point x="409" y="293" type="line"/>
			<point x="340" y="293" type="line"/>
		</contour>
		<contour>
			<point x="173" y="330" type="line"/>
			<point x="241" y="330" type="line"/>
			<point x="241" y="293" type="line"/>
			<point x="173" y="293" type="line"/>
		</contour>
		<contour>
			<point x="71" y="395" type="line"/>
			<point x="71" y="228" type="line"/>
			<point x="685" y="228" type="line"/>
			<point x="685" y="395" type="line"/>
		</contour>
		<contour>
			<point x="548" y="202" type="line"/>
			<point x="548" y="187" type="line"/>
			<point x="470" y="57"/>
			<point x="263" y="21"/>
			<point x="32" y="18" type="curve"/>
			<point x="47" y="-12"/>
			<point x="61" y="-63"/>
			<point x="66" y="-96" type="curve"/>
			<point x="316" y="-82"/>
			<point x="540" y="-33"/>
			<point x="647" y="158" type="curve"/>
			<point x="586" y="208" type="line"/>
			<point x="569" y="202" type="line"/>
		</contour>
		<contour>
			<point x="251" y="138" type="curve"/>
			<point x="172" y="90" type="line"/>
			<point x="287" y="-35"/>
			<point x="469" y="-84"/>
			<point x="681" y="-97" type="curve"/>
			<point x="692" y="-65"/>
			<point x="715" y="-14"/>
			<point x="734" y="14" type="curve"/>
			<point x="527" y="19"/>
			<point x="341" y="52"/>
		</contour>
		<contour>
			<point x="42" y="820" type="line"/>
			<point x="42" y="711" type="line"/>
			<point x="707" y="711" type="line"/>
			<point x="707" y="820" type="line"/>
		</contour>
		<contour>
			<point x="196" y="855" type="line"/>
			<point x="196" y="648" type="line"/>
			<point x="304" y="648" type="line"/>
			<point x="304" y="855" type="line"/>
		</contour>
		<contour>
			<point x="444" y="855" type="line"/>
			<point x="444" y="648" type="line"/>
			<point x="553" y="648" type="line"/>
			<point x="553" y="855" type="line"/>
		</contour>
	</outline>
</glyph>
<glyph name="c4866" format="1">
	<advance width="750"/>
	<outline>
		<contour>
			<point x="404" y="579" type="line"/>
			<point x="585" y="579" type="line"/>
			<point x="585" y="541" type="line"/>
			<point x="404" y="541" type="line"/>
		</contour>
		<contour>
			<point x="404" y="715" type="line"/>
			<point x="585" y="715" type="line"/>
			<point x="585" y="677" type="line"/>
			<point x="404" y="677" type="line"/>
		</contour>
		<contour>
			<point x="299" y="820" type="line"/>
			<point x="299" y="436" type="line"/>
			<point x="696" y="436" type="line"/>
			<point x="696" y="820" type="line"/>
		</contour>
		<contour>
			<point x="343" y="364" type="line"/>
			<point x="300" y="250" type="line"/>
			<point x="704" y="250" type="line"/>
			<point x="704" y="364" type="line"/>
		</contour>
		<contour>
			<point x="442" y="449" type="line"/>
			<point x="442" y="-10" type="line"/>
			<point x="551" y="-10" type="line"/>
			<point x="551" y="449" type="line"/>
		</contour>
		<contour>
			<point x="311" y="199" type="line"/>
			<point x="311" y="88" type="line"/>
			<point x="686" y="88" type="line"/>
			<point x="686" y="199" type="line"/>
		</contour>
		<contour>
			<point x="255" y="36" type="line"/>
			<point x="255" y="-81" type="line"/>
			<point x="731" y="-81" type="line"/>
			<point x="731" y="36" type="line"/>
		</contour>
		<contour>
			<point x="315" y="440" type="line"/>
			<point x="296" y="366"/>
			<point x="260" y="290"/>
			<point x="218" y="243" type="curve"/>
			<point x="242" y="226"/>
			<point x="284" y="190"/>
			<point x="303" y="168" type="curve"/>
			<point x="346" y="224"/>
			<point x="389" y="316"/>
			<point x="413" y="408" type="curve"/>
		</contour>
		<contour>
			<point x="113" y="855" type="line"/>
			<point x="113" y="-95" type="line"/>
			<point x="218" y="-95" type="line"/>
			<point x="218" y="855" type="line"/>
		</contour>
		<contour>
			<point x="44" y="654" type="line"/>
			<point x="44" y="563"/>
			<point x="33" y="452"/>
			<point x="11" y="389" type="curve"/>
			<point x="80" y="348" type="line"/>
			<point x="106" y="425"/>
			<point x="116" y="543"/>
			<point x="115" y="642" type="curve"/>
		</contour>
		<contour>
			<point x="191" y="646" type="line"/>
			<point x="214" y="585"/>
			<point x="235" y="506"/>
			<point x="241" y="455" type="curve"/>
			<point x="308" y="496" type="line"/>
			<point x="301" y="546"/>
			<point x="278" y="623"/>
			<point x="254" y="682" type="curve"/>
		</contour>
	</outline>
</glyph>
<glyph name="c6378" format="1">
	<advance width="750"/>
	<outline>
		<contour>
			<point x="38" y="810" type="line"/>
			<point x="38" y="697" type="line"/>
			<point x="714" y="697" type="line"/>
			<point x="714" y="810" type="line"/>
		</contour>
		<contour>
			<point x="72" y="661" type="line"/>
			<point x="72" y="555" type="line"/>
			<point x="680" y="555" type="line"/>
			<point x="680" y="661" type="line"/>
		</contour>
		<contour>
			<point x="85" y="295" type="line"/>
			<point x="85" y="194" type="line"/>
			<point x="666" y="194" type="line"/>
			<point x="666" y="295" type="line"/>
		</contour>
		<contour>
			<point x="113" y="165" type="line"/>
			<point x="113" y="69" type="line"/>
			<point x="641" y="69" type="line"/>
			<point x="641" y="165" type="line"/>
		</contour>
		<contour>
			<point x="31" y="41" type="line"/>
			<point x="31" y="-66" type="line"/>
			<point x="720" y="-66" type="line"/>
			<point x="720" y="41" type="line"/>
		</contour>
		<contour>
			<point x="197" y="855" type="line"/>
			<point x="197" y="648" type="line"/>
			<point x="305" y="648" type="line"/>
			<point x="305" y="855" type="line"/>
		</contour>
		<contour>
			<point x="445" y="855" type="line"/>
			<point x="445" y="648" type="line"/>
			<point x="554" y="648" type="line"/>
			<point x="554" y="855" type="line"/>
		</contour>
		<contour>
			<point x="320" y="603" type="line"/>
			<point x="320" y="-5" type="line"/>
			<point x="428" y="-5" type="line"/>
			<point x="428" y="603" type="line"/>
		</contour>
		<contour>
			<point x="216" y="441" type="line"/>
			<point x="527" y="441" type="line"/>
			<point x="527" y="410" type="line"/>
			<point x="216" y="410" type="line"/>
		</contour>
		<contour>
			<point x="115" y="528" type="line"/>
			<point x="115" y="323" type="line"/>
			<point x="635" y="323" type="line"/>
			<point x="635" y="528" type="line"/>
		</contour>
	</outline>
</glyph>
<glyph name="c6440" format="1">
	<advance width="750"/>
	<outline>
		<contour>
			<point x="38" y="807" type="line"/>
			<point x="38" y="700" type="line"/>
			<point x="714" y="700" type="line"/>
			<point x="714" y="807" type="line"/>
		</contour>
		<contour>
			<point x="46" y="570" type="line"/>
			<point x="46" y="496" type="line"/>
			<point x="580" y="496" type="line"/>
			<point x="580" y="570" type="line"/>
		</contour>
		<contour>
			<point x="557" y="578" type="line"/>
			<point x="557" y="488" type="line"/>
			<point x="706" y="488" type="line"/>
			<point x="706" y="578" type="line"/>
		</contour>
		<contour>
			<point x="31" y="167" type="line"/>
			<point x="31" y="64" type="line"/>
			<point x="720" y="64" type="line"/>
			<point x="720" y="167" type="line"/>
		</contour>
		<contour>
			<point x="56" y="374" type="line"/>
			<point x="56" y="295" type="line"/>
			<point x="330" y="295" type="line"/>
			<point x="330" y="374" type="line"/>
		</contour>
		<contour>
			<point x="198" y="855" type="line"/>
			<point x="198" y="652" type="line"/>
			<point x="304" y="652" type="line"/>
			<point x="304" y="855" type="line"/>
		</contour>
		<contour>
			<point x="145" y="352" type="line"/>
			<point x="145" y="244" type="line"/>
			<point x="243" y="244" type="line"/>
			<point x="243" y="352" type="line"/>
		</contour>
		<contour>
			<point x="444" y="855" type="line"/>
			<point x="444" y="652" type="line"/>
			<point x="551" y="652" type="line"/>
			<point x="551" y="855" type="line"/>
		</contour>
		<contour>
			<point x="464" y="299" type="line"/>
			<point x="581" y="299" type="line"/>
			<point x="581" y="271" type="line"/>
			<point x="464" y="271" type="line"/>
		</contour>
		<contour>
			<point x="368" y="374" type="line"/>
			<point x="368" y="196" type="line"/>
			<point x="683" y="196" type="line"/>
			<point x="683" y="374" type="line"/>
		</contour>
		<contour>
			<point x="108" y="674" type="line"/>
			<point x="108" y="591" type="line"/>
			<point x="527" y="591" type="line"/>
			<point x="527" y="475" type="line"/>
			<point x="104" y="475" type="line"/>
			<point x="104" y="393" type="line"/>
			<point x="629" y="393" type="line"/>
			<point x="629" y="674" type="line"/>
		</contour>
		<contour>
			<point x="471" y="213" type="line"/>
			<point x="471" y="35" type="line"/>
			<point x="471" y="23"/>
			<point x="467" y="20"/>
			<point x="456" y="20" type="curve"/>
			<point x="446" y="19"/>
			<point x="404" y="19"/>
			<point x="374" y="22" type="curve"/>
			<point x="386" y="-11"/>
			<point x="399" y="-59"/>
			<point x="404" y="-95" type="curve"/>
			<point x="457" y="-95"/>
			<point x="499" y="-95"/>
			<point x="532" y="-78" type="curve"/>
			<point x="566" y="-61"/>
			<point x="575" y="-30"/>
			<point x="575" y="30" type="curve"/>
			<point x="575" y="213" type="line"/>
		</contour>
		<contour>
			<point x="47" y="271" type="curve"/>
			<point x="49" y="185" type="line"/>
			<point x="128" y="187"/>
			<point x="236" y="190"/>
			<point x="341" y="195" type="curve"/>
			<point x="343" y="278" type="line"/>
			<point x="234" y="275"/>
			<point x="122" y="272"/>
		</contour>
		<contour>
			<point x="163" y="38" type="line"/>
			<point x="194" y="7"/>
			<point x="235" y="-39"/>
			<point x="252" y="-70" type="curve"/>
			<point x="328" y="14" type="line"/>
			<point x="308" y="45"/>
			<point x="266" y="87"/>
			<point x="234" y="114" type="curve"/>
		</contour>
	</outline>
</glyph>
<glyph name="c6447" format="1">
	<advance width="750"/>
	<outline>
		<contour>
			<point x="38" y="813" type="line"/>
			<point x="38" y="715" type="line"/>
			<point x="714" y="715" type="line"/>
			<point x="714" y="813" type="line"/>
		</contour>
		<contour>
			<point x="48" y="359" type="line"/>
			<point x="48" y="277" type="line"/>
			<point x="707" y="277" type="line"/>
			<point x="707" y="359" type="line"/>
		</contour>
		<contour>
			<point x="48" y="683" type="line"/>
			<point x="48" y="604" type="line"/>
			<point x="707" y="604" type="line"/>
			<point x="707" y="683" type="line"/>
		</contour>
		<contour>
			<point x="30" y="22" type="line"/>
			<point x="30" y="-66" type="line"/>
			<point x="719" y="-66" type="line"/>
			<point x="719" y="22" type="line"/>
		</contour>
		<contour>
			<point x="198" y="855" type="line"/>
			<point x="198" y="679" type="line"/>
			<point x="304" y="679" type="line"/>
			<point x="304" y="855" type="line"/>
		</contour>
		<contour>
			<point x="444" y="855" type="line"/>
			<point x="444" y="679" type="line"/>
			<point x="551" y="679" type="line"/>
			<point x="551" y="855" type="line"/>
		</contour>
		<contour>
			<point x="324" y="565" type="line"/>
			<point x="324" y="398" type="line"/>
			<point x="422" y="398" type="line"/>
			<point x="422" y="565" type="line"/>
		</contour>
		<contour>
			<point x="218" y="457" type="line"/>
			<point x="530" y="457" type="line"/>
			<point x="530" y="434" type="line"/>
			<point x="218" y="434" type="line"/>
		</contour>
		<contour>
			<point x="218" y="530" type="line"/>
			<point x="530" y="530" type="line"/>
			<point x="530" y="508" type="line"/>
			<point x="218" y="508" type="line"/>
		</contour>
		<contour>
			<point x="118" y="584" type="line"/>
			<point x="118" y="380" type="line"/>
			<point x="635" y="380" type="line"/>
			<point x="635" y="584" type="line"/>
		</contour>
		<contour>
			<point x="324" y="233" type="line"/>
			<point x="324" y="57" type="line"/>
			<point x="422" y="57" type="line"/>
			<point x="422" y="233" type="line"/>
		</contour>
		<contour>
			<point x="211" y="125" type="line"/>
			<point x="537" y="125" type="line"/>
			<point x="537" y="101" type="line"/>
			<point x="211" y="101" type="line"/>
		</contour>
		<contour>
			<point x="211" y="201" type="line"/>
			<point x="537" y="201" type="line"/>
			<point x="537" y="178" type="line"/>
			<point x="211" y="178" type="line"/>
		</contour>
		<contour>
			<point x="110" y="256" type="line"/>
			<point x="110" y="46" type="line"/>
			<point x="642" y="46" type="line"/>
			<point x="642" y="256" type="line"/>
		</contour>
	</outline>
</glyph>
<glyph name="c6821" format="1">
	<advance width="750"/>
	<outline>
		<contour>
			<point x="215" y="277" type="line"/>
			<point x="539" y="277" type="line"/>
			<point x="539" y="246" type="line"/>
			<point x="215" y="246" type="line"/>
		</contour>
		<contour>
			<point x="110" y="356" type="line"/>
			<point x="110" y="168" type="line"/>
			<point x="652" y="168" type="line"/>
			<point x="652" y="356" type="line"/>
		</contour>
		<contour>
			<point x="321" y="227" type="line"/>
			<point x="321" y="-21" type="line"/>
			<point x="431" y="-53" type="line"/>
			<point x="431" y="227" type="line"/>
		</contour>
		<contour>
			<point x="377" y="137" type="line"/>
			<point x="377" y="55" type="line"/>
			<point x="654" y="55" type="line"/>
			<point x="654" y="137" type="line"/>
		</contour>
		<contour>
			<point x="126" y="775" type="line"/>
			<point x="126" y="680" type="line"/>
			<point x="714" y="680" type="line"/>
			<point x="714" y="775" type="line"/>
		</contour>
		<contour>
			<point x="75" y="775" type="line"/>
			<point x="75" y="659" type="line"/>
			<point x="75" y="585"/>
			<point x="70" y="490"/>
			<point x="13" y="419" type="curve"/>
			<point x="34" y="403"/>
			<point x="77" y="356"/>
			<point x="92" y="332" type="curve"/>
			<point x="159" y="417"/>
			<point x="173" y="554"/>
			<point x="173" y="657" type="curve"/>
			<point x="173" y="775" type="line"/>
		</contour>
		<contour>
			<point x="243" y="696" type="line"/>
			<point x="243" y="529" type="line"/>
			<point x="329" y="529" type="line"/>
			<point x="329" y="696" type="line"/>
		</contour>
		<contour>
			<point x="287" y="655" type="line"/>
			<point x="287" y="599" type="line"/>
			<point x="419" y="599" type="line"/>
			<point x="419" y="655" type="line"/>
		</contour>
		<contour>
			<point x="162" y="576" type="line"/>
			<point x="162" y="507" type="line"/>
			<point x="449" y="507" type="line"/>
			<point x="449" y="576" type="line"/>
		</contour>
		<contour>
			<point x="261" y="553" type="line"/>
			<point x="261" y="444" type="line"/>
			<point x="261" y="436"/>
			<point x="259" y="433"/>
			<point x="253" y="433" type="curve"/>
			<point x="248" y="433"/>
			<point x="233" y="433"/>
			<point x="220" y="434" type="curve"/>
			<point x="230" y="412"/>
			<point x="244" y="377"/>
			<point x="250" y="349" type="curve"/>
			<point x="279" y="349"/>
			<point x="303" y="349"/>
			<point x="325" y="363" type="curve"/>
			<point x="347" y="377"/>
			<point x="352" y="394"/>
			<point x="352" y="440" type="curve"/>
			<point x="352" y="553" type="line"/>
		</contour>
		<contour>
			<point x="187" y="504" type="line"/>
			<point x="177" y="470"/>
			<point x="159" y="436"/>
			<point x="136" y="410" type="curve"/>
			<point x="152" y="398"/>
			<point x="178" y="374"/>
			<point x="191" y="360" type="curve"/>
			<point x="215" y="390"/>
			<point x="239" y="437"/>
			<point x="252" y="483" type="curve"/>
		</contour>
		<contour>
			<point x="344" y="474" type="line"/>
			<point x="362" y="444"/>
			<point x="380" y="402"/>
			<point x="387" y="374" type="curve"/>
			<point x="446" y="404" type="line"/>
			<point x="439" y="432"/>
			<point x="419" y="473"/>
			<point x="401" y="502" type="curve"/>
		</contour>
		<contour>
			<point x="394" y="853" type="line"/>
			<point x="410" y="581"/>
			<point x="516" y="350"/>
			<point x="632" y="349" type="curve"/>
			<point x="694" y="349"/>
			<point x="725" y="375"/>
			<point x="738" y="507" type="curve"/>
			<point x="714" y="517"/>
			<point x="682" y="540"/>
			<point x="662" y="564" type="curve"/>
			<point x="659" y="498"/>
			<point x="653" y="473"/>
			<point x="638" y="473" type="curve"/>
			<point x="585" y="473"/>
			<point x="503" y="657"/>
			<point x="491" y="853" type="curve"/>
		</contour>
		<contour>
			<point x="583" y="675" type="line"/>
			<point x="551" y="579"/>
			<point x="490" y="493"/>
			<point x="419" y="441" type="curve"/>
			<point x="440" y="422"/>
			<point x="474" y="380"/>
			<point x="489" y="357" type="curve"/>
			<point x="561" y="421"/>
			<point x="631" y="526"/>
			<point x="671" y="643" type="curve"/>
		</contour>
		<contour>
			<point x="518" y="793" type="line"/>
			<point x="554" y="777"/>
			<point x="602" y="749"/>
			<point x="626" y="728" type="curve"/>
			<point x="674" y="802" type="line"/>
			<point x="647" y="823"/>
			<point x="599" y="848"/>
			<point x="563" y="860" type="curve"/>
		</contour>
		<contour>
			<point x="224" y="124" type="curve"/>
			<point x="152" y="91" type="line"/>
			<point x="210" y="-55"/>
			<point x="298" y="-82"/>
			<point x="459" y="-82" type="curve"/>
			<point x="635" y="-82" type="line"/>
			<point x="686" y="-82" type="line"/>
			<point x="689" y="-49"/>
			<point x="703" y="3"/>
			<point x="715" y="29" type="curve"/>
			<point x="661" y="26"/>
			<point x="504" y="26"/>
			<point x="464" y="26" type="curve"/>
			<point x="344" y="27"/>
			<point x="262" y="37"/>
		</contour>
		<contour>
			<point x="143" y="164" type="line"/>
			<point x="129" y="82"/>
			<point x="86" y="25"/>
			<point x="17" y="-9" type="curve"/>
			<point x="40" y="-30"/>
			<point x="80" y="-78"/>
			<point x="96" y="-103" type="curve"/>
			<point x="171" y="-53"/>
			<point x="225" y="28"/>
			<point x="248" y="148" type="curve"/>
		</contour>
	</outline>
</glyph>
<glyph name="c7225" format="1">
	<advance width="750"/>
	<outline>
		<contour>
			<point x="311" y="225" type="line"/>
			<point x="311" y="109" type="line"/>
			<point x="724" y="109" type="line"/>
			<point x="724" y="225" type="line"/>
		</contour>
		<contour>
			<point x="324" y="413" type="line"/>
			<point x="324" y="299" type="line"/>
			<point x="713" y="299" type="line"/>
			<point x="713" y="413" type="line"/>
		</contour>
		<contour>
			<point x="354" y="828" type="line"/>
			<point x="354" y="740" type="line"/>
			<point x="427" y="740" type="line"/>
			<point x="427" y="701" type="line"/>
			<point x="354" y="701" type="line"/>
			<point x="354" y="612" type="line"/>
			<point x="503" y="612" type="line"/>
			<point x="503" y="828" type="line"/>
		</contour>
		<contour>
			<point x="394" y="485" type="line"/>
			<point x="394" y="197" type="line"/>
			<point x="487" y="197" type="line"/>
			<point x="487" y="485" type="line"/>
		</contour>
		<contour>
			<point x="547" y="485" type="line"/>
			<point x="547" y="192" type="line"/>
			<point x="641" y="192" type="line"/>
			<point x="641" y="485" type="line"/>
		</contour>
		<contour>
			<point x="318" y="828" type="line"/>
			<point x="318" y="589" type="line"/>
			<point x="318" y="494"/>
			<point x="335" y="466"/>
			<point x="396" y="466" type="curve"/>
			<point x="408" y="466"/>
			<point x="437" y="466"/>
			<point x="449" y="466" type="curve"/>
			<point x="494" y="466"/>
			<point x="515" y="491"/>
			<point x="524" y="578" type="curve"/>
			<point x="503" y="584"/>
			<point x="471" y="600"/>
			<point x="456" y="616" type="curve"/>
			<point x="455" y="569"/>
			<point x="452" y="562"/>
			<point x="440" y="562" type="curve"/>
			<point x="434" y="562"/>
			<point x="414" y="562"/>
			<point x="409" y="562" type="curve"/>
			<point x="397" y="562"/>
			<point x="395" y="565"/>
			<point x="395" y="591" type="curve"/>
			<point x="395" y="828" type="line"/>
		</contour>
		<contour>
			<point x="558" y="828" type="line"/>
			<point x="558" y="741" type="line"/>
			<point x="635" y="741" type="line"/>
			<point x="635" y="702" type="line"/>
			<point x="558" y="702" type="line"/>
			<point x="558" y="615" type="line"/>
			<point x="713" y="615" type="line"/>
			<point x="713" y="828" type="line"/>
		</contour>
		<contour>
			<point x="522" y="828" type="line"/>
			<point x="522" y="593" type="line"/>
			<point x="522" y="497"/>
			<point x="539" y="470"/>
			<point x="601" y="470" type="curve"/>
			<point x="614" y="470"/>
			<point x="643" y="470"/>
			<point x="656" y="470" type="curve"/>
			<point x="702" y="470"/>
			<point x="723" y="494"/>
			<point x="731" y="580" type="curve"/>
			<point x="710" y="587"/>
			<point x="678" y="603"/>
			<point x="663" y="618" type="curve"/>
			<point x="661" y="573"/>
			<point x="659" y="566"/>
			<point x="647" y="566" type="curve"/>
			<point x="640" y="566"/>
			<point x="620" y="566"/>
			<point x="614" y="566" type="curve"/>
			<point x="601" y="566"/>
			<point x="599" y="569"/>
			<point x="599" y="595" type="curve"/>
			<point x="599" y="828" type="line"/>
		</contour>
		<contour>
			<point x="534" y="38" type="line"/>
			<point x="580" y="2"/>
			<point x="639" y="-55"/>
			<point x="665" y="-93" type="curve"/>
			<point x="737" y="-5" type="line"/>
			<point x="706" y="33"/>
			<point x="645" y="84"/>
			<point x="600" y="117" type="curve"/>
		</contour>
		<contour>
			<point x="425" y="117" type="line"/>
			<point x="395" y="75"/>
			<point x="336" y="19"/>
			<point x="285" y="-10" type="curve"/>
			<point x="308" y="-32"/>
			<point x="338" y="-69"/>
			<point x="354" y="-93" type="curve"/>
			<point x="404" y="-61"/>
			<point x="468" y="-3"/>
			<point x="506" y="47" type="curve"/>
		</contour>
		<contour>
			<point x="56" y="559" type="line"/>
			<point x="56" y="-94" type="line"/>
			<point x="147" y="-94" type="line"/>
			<point x="147" y="559" type="line"/>
		</contour>
		<contour>
			<point x="110" y="442" type="line"/>
			<point x="110" y="360" type="line"/>
			<point x="266" y="360" type="line"/>
			<point x="266" y="442" type="line"/>
		</contour>
		<contour>
			<point x="125" y="681" type="line"/>
			<point x="125" y="587" type="line"/>
			<point x="251" y="587" type="line"/>
			<point x="251" y="681" type="line"/>
		</contour>
		<contour>
			<point x="109" y="215" type="line"/>
			<point x="109" y="109" type="line"/>
			<point x="299" y="109" type="line"/>
			<point x="299" y="215" type="line"/>
		</contour>
		<contour>
			<point x="110" y="83" type="line"/>
			<point x="110" y="-25" type="line"/>
			<point x="303" y="-25" type="line"/>
			<point x="303" y="83" type="line"/>
		</contour>
		<contour>
			<point x="115" y="559" type="line"/>
			<point x="115" y="468" type="line"/>
			<point x="212" y="468" type="line"/>
			<point x="212" y="330" type="line"/>
			<point x="115" y="330" type="line"/>
			<point x="115" y="239" type="line"/>
			<point x="302" y="239" type="line"/>
			<point x="302" y="559" type="line"/>
		</contour>
		<contour>
			<point x="126" y="855" type="line"/>
			<point x="104" y="782"/>
			<point x="65" y="695"/>
			<point x="9" y="628" type="curve"/>
			<point x="30" y="611"/>
			<point x="61" y="571"/>
			<point x="76" y="543" type="curve"/>
			<point x="142" y="629"/>
			<point x="183" y="725"/>
			<point x="210" y="794" type="curve"/>
			<point x="210" y="830" type="line"/>
			<point x="181" y="830" type="line"/>
			<point x="181" y="855" type="line"/>
		</contour>
		<contour>
			<point x="148" y="855" type="line"/>
			<point x="148" y="763" type="line"/>
			<point x="164" y="763" type="line"/>
			<point x="201" y="720"/>
			<point x="248" y="636"/>
			<point x="269" y="587" type="curve"/>
			<point x="334" y="686" type="line"/>
			<point x="310" y="737"/>
			<point x="258" y="806"/>
			<point x="216" y="855" type="curve"/>
		</contour>
	</outline>
</glyph>
<glyph name="c7253" format="1">
	<advance width="750"/>
	<outline>
		<contour>
			<point x="44" y="822" type="line"/>
			<point x="44" y="730" type="line"/>
			<point x="706" y="730" type="line"/>
			<point x="706" y="822" type="line"/>
		</contour>
		<contour>
			<point x="198" y="855" type="line"/>
			<point x="198" y="675" type="line"/>
			<point x="304" y="675" type="line"/>
			<point x="304" y="855" type="line"/>
		</contour>
		<contour>
			<point x="444" y="855" type="line"/>
			<point x="444" y="675" type="line"/>
			<point x="551" y="675" type="line"/>
			<point x="551" y="855" type="line"/>
		</contour>
		<contour>
			<point x="214" y="551" type="line"/>
			<point x="532" y="551" type="line"/>
			<point x="532" y="528" type="line"/>
			<point x="214" y="528" type="line"/>
		</contour>
		<contour>
			<point x="214" y="638" type="line"/>
			<point x="532" y="638" type="line"/>
			<point x="532" y="615" type="line"/>
			<point x="214" y="615" type="line"/>
		</contour>
		<contour>
			<point x="115" y="705" type="line"/>
			<point x="115" y="461" type="line"/>
			<point x="636" y="461" type="line"/>
			<point x="636" y="705" type="line"/>
		</contour>
		<contour>
			<point x="31" y="437" type="line"/>
			<point x="31" y="347" type="line"/>
			<point x="720" y="347" type="line"/>
			<point x="720" y="437" type="line"/>
		</contour>
		<contour>
			<point x="222" y="240" type="line"/>
			<point x="222" y="191" type="line"/>
			<point x="574" y="191" type="line"/>
			<point x="574" y="240" type="line"/>
		</contour>
		<contour>
			<point x="222" y="169" type="line"/>
			<point x="222" y="120" type="line"/>
			<point x="584" y="120" type="line"/>
			<point x="584" y="169" type="line"/>
		</contour>
		<contour>
			<point x="153" y="98" type="line"/>
			<point x="153" y="29" type="line"/>
			<point x="620" y="29" type="line"/>
			<point x="620" y="98" type="line"/>
		</contour>
		<contour>
			<point x="236" y="492" type="line"/>
			<point x="208" y="392"/>
			<point x="142" y="304"/>
			<point x="13" y="248" type="curve"/>
			<point x="32" y="227"/>
			<point x="59" y="179"/>
			<point x="68" y="148" type="curve"/>
			<point x="212" y="223"/>
			<point x="290" y="330"/>
			<point x="334" y="472" type="curve"/>
		</contour>
		<contour>
			<point x="531" y="411" type="curve"/>
			<point x="453" y="377" type="line"/>
			<point x="502" y="277"/>
			<point x="582" y="199"/>
			<point x="679" y="163" type="curve"/>
			<point x="692" y="196"/>
			<point x="720" y="245"/>
			<point x="741" y="270" type="curve"/>
			<point x="651" y="293"/>
			<point x="572" y="344"/>
		</contour>
		<contour>
			<point x="332" y="306" type="line"/>
			<point x="332" y="63" type="line"/>
			<point x="428" y="63" type="line"/>
			<point x="428" y="306" type="line"/>
		</contour>
		<contour>
			<point x="585" y="98" type="line"/>
			<point x="585" y="86" type="line"/>
			<point x="581" y="34"/>
			<point x="575" y="9"/>
			<point x="569" y="0" type="curve"/>
			<point x="564" y="-7"/>
			<point x="560" y="-8"/>
			<point x="553" y="-8" type="curve"/>
			<point x="545" y="-8"/>
			<point x="533" y="-7"/>
			<point x="518" y="-5" type="curve"/>
			<point x="527" y="-29"/>
			<point x="536" y="-68"/>
			<point x="536" y="-96" type="curve"/>
			<point x="564" y="-97"/>
			<point x="589" y="-96"/>
			<point x="603" y="-94" type="curve"/>
			<point x="619" y="-92"/>
			<point x="635" y="-85"/>
			<point x="647" y="-68" type="curve"/>
			<point x="662" y="-49"/>
			<point x="671" y="-10"/>
			<point x="677" y="58" type="curve"/>
			<point x="679" y="73"/>
			<point x="680" y="98"/>
			<point x="680" y="98" type="curve"/>
		</contour>
		<contour>
			<point x="124" y="53" type="line"/>
			<point x="113" y="17"/>
			<point x="89" y="-22"/>
			<point x="59" y="-45" type="curve"/>
			<point x="135" y="-101" type="line"/>
			<point x="169" y="-72"/>
			<point x="188" y="-31"/>
			<point x="202" y="14" type="curve"/>
		</contour>
		<contour>
			<point x="212" y="13" type="line"/>
			<point x="219" y="-20"/>
			<point x="224" y="-65"/>
			<point x="224" y="-93" type="curve"/>
			<point x="304" y="-76" type="line"/>
			<point x="303" y="-49"/>
			<point x="296" y="-5"/>
			<point x="288" y="27" type="curve"/>
		</contour>
		<contour>
			<point x="313" y="11" type="line"/>
			<point x="329" y="-18"/>
			<point x="345" y="-59"/>
			<point x="351" y="-86" type="curve"/>
			<point x="424" y="-54" type="line"/>
			<point x="416" y="-27"/>
			<point x="400" y="11"/>
			<point x="382" y="37" type="curve"/>
		</contour>
		<contour>
			<point x="421" y="8" type="line"/>
			<point x="439" y="-13"/>
			<point x="459" y="-45"/>
			<point x="467" y="-66" type="curve"/>
			<point x="530" y="-24" type="line"/>
			<point x="521" y="-2"/>
			<point x="499" y="27"/>
			<point x="480" y="47" type="curve"/>
		</contour>
		<contour>
			<point x="236" y="324" type="line"/>
			<point x="189" y="261" type="line"/>
			<point x="517" y="261" type="line"/>
			<point x="517" y="324" type="line"/>
		</contour>
		<contour>
			<point x="153" y="280" type="line"/>
			<point x="153" y="65" type="line"/>
			<point x="255" y="65" type="line"/>
			<point x="255" y="326" type="line"/>
		</contour>
	</outline>
</glyph>
<glyph name="c7701" format="1">
	<advance width="750"/>
	<outline>
		<contour>
			<point x="40" y="327" type="line"/>
			<point x="40" y="235" type="line"/>
			<point x="712" y="235" type="line"/>
			<point x="712" y="327" type="line"/>
		</contour>
		<contour>
			<point x="114" y="446" type="line"/>
			<point x="114" y="358" type="line"/>
			<point x="536" y="358" type="line"/>
			<point x="536" y="446" type="line"/>
		</contour>
		<contour>
			<point x="214" y="95" type="line"/>
			<point x="214" y="26" type="line"/>
			<point x="589" y="26" type="line"/>
			<point x="589" y="95" type="line"/>
		</contour>
		<contour>
			<point x="214" y="1" type="line"/>
			<point x="214" y="-80" type="line"/>
			<point x="589" y="-80" type="line"/>
			<point x="589" y="1" type="line"/>
		</contour>
		<contour>
			<point x="284" y="494" type="line"/>
			<point x="284" y="300" type="line"/>
			<point x="387" y="300" type="line"/>
			<point x="387" y="494" type="line"/>
		</contour>
		<contour>
			<point x="179" y="200" type="line"/>
			<point x="179" y="-95" type="line"/>
			<point x="281" y="-95" type="line"/>
			<point x="281" y="119" type="line"/>
			<point x="527" y="119" type="line"/>
			<point x="527" y="-95" type="line"/>
			<point x="635" y="-95" type="line"/>
			<point x="635" y="200" type="line"/>
		</contour>
		<contour>
			<point x="599" y="482" type="line"/>
			<point x="480" y="321"/>
			<point x="246" y="228"/>
			<point x="13" y="188" type="curve"/>
			<point x="26" y="163"/>
			<point x="47" y="110"/>
			<point x="56" y="83" type="curve"/>
			<point x="290" y="137"/>
			<point x="534" y="237"/>
			<point x="674" y="424" type="curve"/>
		</contour>
		<contour>
			<point x="475" y="221" type="line"/>
			<point x="497" y="201"/>
			<point x="523" y="172"/>
			<point x="536" y="152" type="curve"/>
			<point x="596" y="210" type="line"/>
			<point x="582" y="231"/>
			<point x="554" y="258"/>
			<point x="533" y="275" type="curve"/>
		</contour>
		<contour>
			<point x="494" y="591" type="line"/>
			<point x="563" y="591" type="line"/>
			<point x="563" y="560" type="line"/>
			<point x="494" y="560" type="line"/>
		</contour>
		<contour>
			<point x="341" y="591" type="line"/>
			<point x="409" y="591" type="line"/>
			<point x="409" y="560" type="line"/>
			<point x="341" y="560" type="line"/>
		</contour>
		<contour>
			<point x="190" y="591" type="line"/>
			<point x="256" y="591" type="line"/>
			<point x="256" y="560" type="line"/>
			<point x="190" y="560" type="line"/>
		</contour>
		<contour>
			<point x="94" y="675" type="line"/>
			<point x="94" y="476" type="line"/>
			<point x="665" y="476" type="line"/>
			<point x="665" y="675" type="line"/>
		</contour>
		<contour>
			<point x="41" y="809" type="line"/>
			<point x="41" y="702" type="line"/>
			<point x="710" y="702" type="line"/>
			<point x="710" y="809" type="line"/>
		</contour>
		<contour>
			<point x="196" y="855" type="line"/>
			<point x="196" y="648" type="line"/>
			<point x="304" y="648" type="line"/>
			<point x="304" y="855" type="line"/>
		</contour>
		<contour>
			<point x="444" y="855" type="line"/>
			<point x="444" y="648" type="line"/>
			<point x="553" y="648" type="line"/>
			<point x="553" y="855" type="line"/>
		</contour>
	</outline>
</glyph>
<glyph name="c7716" format="1">
	<advance width="750"/>
	<outline>
		<contour>
			<point x="269" y="822" type="line"/>
			<point x="269" y="582" type="line"/>
			<point x="269" y="482"/>
			<point x="289" y="453"/>
			<point x="358" y="453" type="curve"/>
			<point x="372" y="453"/>
			<point x="405" y="453"/>
			<point x="420" y="453" type="curve"/>
			<point x="471" y="453"/>
			<point x="494" y="479"/>
			<point x="503" y="568" type="curve"/>
			<point x="479" y="575"/>
			<point x="445" y="592"/>
			<point x="428" y="608" type="curve"/>
			<point x="426" y="561"/>
			<point x="423" y="552"/>
			<point x="410" y="552" type="curve"/>
			<point x="403" y="552"/>
			<point x="379" y="552"/>
			<point x="373" y="552" type="curve"/>
			<point x="358" y="552"/>
			<point x="356" y="555"/>
			<point x="356" y="583" type="curve"/>
			<point x="356" y="822" type="line"/>
		</contour>
		<contour>
			<point x="308" y="822" type="line"/>
			<point x="308" y="734" type="line"/>
			<point x="396" y="734" type="line"/>
			<point x="396" y="692" type="line"/>
			<point x="308" y="692" type="line"/>
			<point x="308" y="605" type="line"/>
			<point x="476" y="605" type="line"/>
			<point x="476" y="822" type="line"/>
		</contour>
		<contour>
			<point x="497" y="822" type="line"/>
			<point x="497" y="582" type="line"/>
			<point x="497" y="482"/>
			<point x="517" y="453"/>
			<point x="586" y="453" type="curve"/>
			<point x="600" y="453"/>
			<point x="633" y="453"/>
			<point x="648" y="453" type="curve"/>
			<point x="699" y="453"/>
			<point x="722" y="479"/>
			<point x="731" y="568" type="curve"/>
			<point x="707" y="575"/>
			<point x="673" y="592"/>
			<point x="656" y="608" type="curve"/>
			<point x="654" y="561"/>
			<point x="651" y="552"/>
			<point x="638" y="552" type="curve"/>
			<point x="631" y="552"/>
			<point x="607" y="552"/>
			<point x="601" y="552" type="curve"/>
			<point x="586" y="552"/>
			<point x="584" y="555"/>
			<point x="584" y="583" type="curve"/>
			<point x="584" y="822" type="line"/>
		</contour>
		<contour>
			<point x="536" y="822" type="line"/>
			<point x="536" y="734" type="line"/>
			<point x="626" y="734" type="line"/>
			<point x="626" y="692" type="line"/>
			<point x="536" y="692" type="line"/>
			<point x="536" y="605" type="line"/>
			<point x="708" y="605" type="line"/>
			<point x="708" y="822" type="line"/>
		</contour>
		<contour>
			<point x="273" y="399" type="line"/>
			<point x="273" y="285" type="line"/>
			<point x="706" y="285" type="line"/>
			<point x="706" y="399" type="line"/>
		</contour>
		<contour>
			<point x="246" y="210" type="line"/>
			<point x="246" y="93" type="line"/>
			<point x="726" y="93" type="line"/>
			<point x="726" y="210" type="line"/>
		</contour>
		<contour>
			<point x="347" y="475" type="line"/>
			<point x="347" y="155" type="line"/>
			<point x="443" y="155" type="line"/>
			<point x="443" y="475" type="line"/>
		</contour>
		<contour>
			<point x="518" y="474" type="line"/>
			<point x="518" y="150" type="line"/>
			<point x="614" y="150" type="line"/>
			<point x="614" y="474" type="line"/>
		</contour>
		<contour>
			<point x="368" y="88" type="line"/>
			<point x="339" y="50"/>
			<point x="281" y="19"/>
			<point x="222" y="-1" type="curve"/>
			<point x="245" y="-23"/>
			<point x="282" y="-72"/>
			<point x="299" y="-98" type="curve"/>
			<point x="362" y="-68"/>
			<point x="430" y="-16"/>
			<point x="469" y="47" type="curve"/>
		</contour>
		<contour>
			<point x="504" y="28" type="line"/>
			<point x="553" y="-5"/>
			<point x="615" y="-58"/>
			<point x="644" y="-93" type="curve"/>
			<point x="736" y="-23" type="line"/>
			<point x="701" y="15"/>
			<point x="637" y="64"/>
			<point x="589" y="93" type="curve"/>
		</contour>
		<contour>
			<point x="13" y="361" type="curve"/>
			<point x="35" y="222" type="line"/>
			<point x="103" y="246"/>
			<point x="185" y="275"/>
			<point x="262" y="305" type="curve"/>
			<point x="248" y="435" type="line"/>
			<point x="164" y="406"/>
			<point x="74" y="377"/>
		</contour>
		<contour>
			<point x="26" y="672" type="line"/>
			<point x="26" y="539" type="line"/>
			<point x="256" y="539" type="line"/>
			<point x="256" y="672" type="line"/>
		</contour>
		<contour>
			<point x="96" y="854" type="line"/>
			<point x="96" y="54" type="line"/>
			<point x="96" y="41"/>
			<point x="93" y="38"/>
			<point x="84" y="38" type="curve"/>
			<point x="75" y="37"/>
			<point x="50" y="37"/>
			<point x="26" y="39" type="curve"/>
			<point x="39" y="0"/>
			<point x="51" y="-60"/>
			<point x="53" y="-96" type="curve"/>
			<point x="103" y="-96"/>
			<point x="137" y="-91"/>
			<point x="163" y="-68" type="curve"/>
			<point x="188" y="-46"/>
			<point x="196" y="-9"/>
			<point x="196" y="54" type="curve"/>
			<point x="196" y="854" type="line"/>
		</contour>
	</outline>
</glyph>
<glyph name="c8611" format="1">
	<advance width="750"/>
	<outline>
		<contour>
			<point x="197" y="411" type="line"/>
			<point x="546" y="411" type="line"/>
			<point x="546" y="326" type="line"/>
			<point x="197" y="326" type="line"/>
		</contour>
		<contour>
			<point x="101" y="472" type="line"/>
			<point x="101" y="265" type="line"/>
			<point x="648" y="265" type="line"/>
			<point x="648" y="472" type="line"/>
		</contour>
		<contour>
			<point x="41" y="809" type="line"/>
			<point x="41" y="710" type="line"/>
			<point x="707" y="710" type="line"/>
			<point x="707" y="809" type="line"/>
		</contour>
		<contour>
			<point x="44" y="576" type="line"/>
			<point x="44" y="494" type="line"/>
			<point x="706" y="494" type="line"/>
			<point x="706" y="576" type="line"/>
		</contour>
		<contour>
			<point x="84" y="243" type="line"/>
			<point x="84" y="168" type="line"/>
			<point x="665" y="168" type="line"/>
			<point x="665" y="243" type="line"/>
		</contour>
		<contour>
			<point x="38" y="144" type="line"/>
			<point x="38" y="56" type="line"/>
			<point x="710" y="56" type="line"/>
			<point x="710" y="144" type="line"/>
		</contour>
		<contour>
			<point x="201" y="855" type="line"/>
			<point x="201" y="648" type="line"/>
			<point x="307" y="648" type="line"/>
			<point x="307" y="855" type="line"/>
		</contour>
		<contour>
			<point x="441" y="855" type="line"/>
			<point x="441" y="648" type="line"/>
			<point x="548" y="648" type="line"/>
			<point x="548" y="855" type="line"/>
		</contour>
		<contour>
			<point x="319" y="618" type="line"/>
			<point x="319" y="96" type="line"/>
			<point x="425" y="96" type="line"/>
			<point x="425" y="618" type="line"/>
		</contour>
		<contour>
			<point x="125" y="75" type="line"/>
			<point x="106" y="38"/>
			<point x="70" y="2"/>
			<point x="29" y="-17" type="curve"/>
			<point x="104" y="-97" type="line"/>
			<point x="154" y="-68"/>
			<point x="186" y="-24"/>
			<point x="209" y="26" type="curve"/>
		</contour>
		<contour>
			<point x="232" y="32" type="line"/>
			<point x="243" y="-7"/>
			<point x="255" y="-59"/>
			<point x="259" y="-91" type="curve"/>
			<point x="360" y="-57" type="line"/>
			<point x="355" y="-25"/>
			<point x="341" y="25"/>
			<point x="327" y="62" type="curve"/>
		</contour>
		<contour>
			<point x="375" y="28" type="line"/>
			<point x="394" y="-8"/>
			<point x="413" y="-58"/>
			<point x="421" y="-90" type="curve"/>
			<point x="516" y="-47" type="line"/>
			<point x="507" y="-14"/>
			<point x="485" y="33"/>
			<point x="465" y="68" type="curve"/>
		</contour>
		<contour>
			<point x="523" y="22" type="line"/>
			<point x="557" y="-13"/>
			<point x="602" y="-64"/>
			<point x="623" y="-95" type="curve"/>
			<point x="712" y="-39" type="line"/>
			<point x="687" y="-6"/>
			<point x="640" y="41"/>
			<point x="607" y="73" type="curve"/>
		</contour>
		<contour>
			<point x="599" y="693" type="line"/>
			<point x="476" y="679"/>
			<point x="268" y="672"/>
			<point x="85" y="676" type="curve"/>
			<point x="91" y="657"/>
			<point x="99" y="619"/>
			<point x="101" y="597" type="curve"/>
			<point x="287" y="592"/>
			<point x="503" y="598"/>
			<point x="663" y="618" type="curve"/>
		</contour>
		<contour>
			<point x="208" y="388" type="line"/>
			<point x="219" y="366"/>
			<point x="231" y="334"/>
			<point x="236" y="314" type="curve"/>
			<point x="305" y="344" type="line"/>
			<point x="300" y="364"/>
			<point x="287" y="394"/>
			<point x="275" y="415" type="curve"/>
		</contour>
		<contour>
			<point x="464" y="420" type="line"/>
			<point x="458" y="397"/>
			<point x="443" y="363"/>
			<point x="433" y="339" type="curve"/>
			<point x="495" y="314" type="line"/>
			<point x="507" y="334"/>
			<point x="522" y="361"/>
			<point x="539" y="393" type="curve"/>
		</contour>
	</outline>
</glyph>
